<svg width="108" height="108" viewBox="0 0 108 108" fill="none" xmlns="http://www.w3.org/2000/svg">
<g clip-path="url(#clip0_30_49)">
<path fill-rule="evenodd" clip-rule="evenodd" d="M74.25 87.75C77.976 87.75 81 90.774 81 94.5C81 98.226 77.976 101.25 74.25 101.25C70.524 101.25 67.5 98.226 67.5 94.5C67.5 90.774 70.524 87.75 74.25 87.75ZM60.75 94.5C60.75 101.955 66.7946 108 74.25 108C81.7054 108 87.75 101.955 87.75 94.5C87.75 87.0446 81.7054 81 74.25 81C66.7946 81 60.75 87.0446 60.75 94.5ZM20.25 20.25H101.25L92.6201 54.7729L20.25 60.75V20.25ZM27 74.25C23.274 74.25 20.25 71.226 20.25 67.5L97.875 60.75C97.875 60.75 108 19.8281 108 16.875C108 15.0086 106.491 13.5 104.625 13.5H20.25V6.75H23.625C25.4914 6.75 27 5.24137 27 3.375C27 1.512 25.4914 0 23.625 0H3.375C1.50863 0 0 1.512 0 3.375C0 5.24137 1.50863 6.75 3.375 6.75H13.5V67.5C13.5 74.9554 19.5446 81 27 81H104.625C104.73 81 104.625 77.6554 104.625 74.25H27ZM33.75 87.75C37.476 87.75 40.5 90.774 40.5 94.5C40.5 98.226 37.476 101.25 33.75 101.25C30.024 101.25 27 98.226 27 94.5C27 90.774 30.024 87.75 33.75 87.75ZM20.25 94.5C20.25 101.955 26.2946 108 33.75 108C41.2054 108 47.25 101.955 47.25 94.5C47.25 87.0446 41.2054 81 33.75 81C26.2946 81 20.25 87.0446 20.25 94.5Z" fill="#676767"/>
</g>
<defs>
<clipPath id="clip0_30_49">
<rect width="108" height="108" fill="white"/>
</clipPath>
</defs>
</svg>
