<svg width="154" height="154" viewBox="0 0 154 154" fill="none" xmlns="http://www.w3.org/2000/svg">
<path d="M19.25 57.75V124.483C19.25 128.077 19.25 129.873 19.9494 131.245C20.5646 132.453 21.5455 133.436 22.7529 134.051C24.1241 134.75 25.9201 134.75 29.5068 134.75H96.2506M109.083 51.3333L83.4167 77L70.5833 64.1667M44.9167 88.5513V39.7846C44.9167 32.5972 44.9167 29.0009 46.3154 26.2557C47.5458 23.8409 49.5076 21.8791 51.9224 20.6488C54.6676 19.25 58.2639 19.25 65.4513 19.25H114.218C121.405 19.25 124.997 19.25 127.742 20.6488C130.157 21.8791 132.122 23.8409 133.352 26.2557C134.751 29.0009 134.751 32.5947 134.751 39.7819V88.5487C134.751 95.736 134.751 99.33 133.352 102.075C132.122 104.49 130.157 106.456 127.742 107.686C125 109.083 121.413 109.083 114.24 109.083H65.4301C58.2569 109.083 54.6649 109.083 51.9224 107.686C49.5076 106.456 47.5458 104.49 46.3154 102.076C44.9167 99.3306 44.9167 95.7386 44.9167 88.5513Z" stroke="#676767" stroke-width="8" stroke-linecap="round" stroke-linejoin="round"/>
</svg>
