<svg width="145" height="145" viewBox="0 0 145 145" fill="none" xmlns="http://www.w3.org/2000/svg">
<path d="M48.3334 30.2086C42.3621 30.2133 39.2321 30.2892 36.806 31.5254C34.5323 32.6838 32.6838 34.5323 31.5254 36.806C30.2084 39.3907 30.2084 42.7743 30.2084 49.5417V107.542C30.2084 114.309 30.2084 117.693 31.5254 120.278C32.6838 122.551 34.5323 124.4 36.806 125.558C39.3907 126.875 42.7744 126.875 49.5417 126.875H95.4584C102.226 126.875 105.61 126.875 108.194 125.558C110.468 124.4 112.316 122.551 113.475 120.278C114.792 117.693 114.792 114.309 114.792 107.542V49.5417C114.792 42.7743 114.792 39.3907 113.475 36.806C112.316 34.5323 110.468 32.6838 108.194 31.5254C105.768 30.2892 102.638 30.2133 96.6667 30.2086M48.3334 30.2086V42.2917H96.6667V30.2086M48.3334 30.2086V28.4388C48.3334 25.7034 49.42 23.08 51.3542 21.1458C53.2884 19.2117 55.9117 18.125 58.6472 18.125H86.353C89.088 18.125 91.7119 19.2117 93.6459 21.1458C95.5798 23.08 96.6667 25.7034 96.6667 28.4388V30.2086M90.625 72.5H72.5M90.625 96.6667H72.5M54.375 72.5H54.4355M54.375 96.6667H54.4355" stroke="#676767" stroke-width="8" stroke-linecap="round" stroke-linejoin="round"/>
</svg>
