<?xml version="1.0" encoding="utf-8"?>
<!-- Generator: Adobe Illustrator 23.0.4, SVG Export Plug-In . SVG Version: 6.00 Build 0)  -->
<svg version="1.1" id="Слой_1" xmlns="http://www.w3.org/2000/svg" xmlns:xlink="http://www.w3.org/1999/xlink" x="0px" y="0px"
	 width="400px" height="220px" viewBox="0 0 400 220" style="enable-background:new 0 0 400 220;" xml:space="preserve">
<path d="M292.07,102.75c-1.3,2.59-3.68,6.26-5.85,8.42H112.64c-1.3-1.73-4.33-5.61-5.63-8.42H292.07L292.07,102.75L292.07,102.75z
	 M279.1,120.05H119.77c2.59,3.03,5.4,5.83,8.21,7.78h142.26C273.68,125.87,276.94,123.08,279.1,120.05L279.1,120.05L279.1,120.05z
	 M259.43,136.04h-43.68c-1.29,6.93-1.29,13.41-1.29,18.16C227.21,153.33,244.08,147.5,259.43,136.04L259.43,136.04L259.43,136.04z
	 M308.29,46.11c-19.89,1.29-48.43,14.71-67.02,36.53c-3.46,3.89-6.49,7.79-8.87,11.89h63.99C305.03,77.24,309.57,60.16,308.29,46.11
	L308.29,46.11L308.29,46.11z M184.2,154.2c0.21-4.75,0.21-11.23-0.66-18.16h-44.1C155.01,147.5,171.87,153.33,184.2,154.2
	L184.2,154.2L184.2,154.2z M199.54,155.49c4.53-4.75,9.3-11.24,13.62-19.45H185.7C190.25,144.25,194.57,150.74,199.54,155.49
	L199.54,155.49L199.54,155.49z M166.9,94.53c-2.38-4.1-5.63-8-8.86-11.89c-18.6-21.83-47.35-35.24-67.02-36.53
	c-1.29,14.05,3.02,31.13,11.67,48.43H166.9L166.9,94.53L166.9,94.53z M227.21,94.53c0.44-4.97,0.87-9.73,0.87-15.35
	c0-30.26-13.62-61.61-28.54-75.66C184.41,17.57,171,48.93,171,79.18c0,5.62,0,10.38,0.86,15.35H227.21L227.21,94.53L227.21,94.53z
	 M291.67,216.48c9.08,0,16.65-3.69,16.65-12.78c0-5.18-3.68-8.64-9.52-10.15c-6.06-1.51-13.84-1.3-13.84-5.19
	c0.43-2.6,2.81-3.25,6.49-3.25c5.63,0,5.84,3.03,6.06,4.97h9.29c-0.65-7.12-6.49-12.1-15.78-12.1c-9.74,0-15.36,5.2-15.36,11.9
	c0,3.88,1.94,7.34,5.2,9.07c2.38,1.08,5.61,1.95,9.51,2.6c4.11,0.43,7.79,0.86,8,3.67c0,1.95-1.96,4.33-6.27,4.33
	c-6.27,0-7.57-3.46-7.57-5.85h-9.72C275.03,211.27,281.29,216.48,291.67,216.48L291.67,216.48L291.67,216.48z M240.83,197.22
	c0,5.63,4.98,10.6,10.83,10.6c5.61,0,10.37-4.97,10.37-10.6c0-5.83-4.77-10.81-10.37-10.81
	C245.81,186.41,240.83,191.39,240.83,197.22L240.83,197.22L240.83,197.22z M251.2,216.48c-10.6,0-19.45-8.66-19.45-19.26
	c0-10.81,8.86-19.24,19.45-19.24c4.12,0,7.79,1.08,10.82,3.25v-2.82h9.29v37.18h-9.29v-2.38
	C258.99,215.17,255.32,216.48,251.2,216.48L251.2,216.48L251.2,216.48z M198.25,197.22c0,5.63,4.96,10.6,10.59,10.6
	c5.83,0,10.81-4.97,10.81-10.6c0-5.83-4.98-10.81-10.81-10.81C203.21,186.41,198.25,191.39,198.25,197.22L198.25,197.22
	L198.25,197.22z M219.65,165.65h9.08v49.94h-9.08v-2.38c-3.02,1.95-6.92,3.26-11.02,3.26c-10.61,0-19.24-8.66-19.24-19.26
	c0-10.81,8.64-19.24,19.24-19.24c4.1,0,7.78,1.08,11.02,3.25V165.65L219.65,165.65L219.65,165.65z M176.4,174.96v-9.3h9.08v9.3
	H176.4L176.4,174.96L176.4,174.96z M185.48,215.6h-9.08v-37.18h9.08V215.6L185.48,215.6L185.48,215.6z M140.95,197.22
	c0,5.63,4.97,10.6,11.03,10.6c5.62,0,10.59-4.97,10.59-10.6c0-5.83-4.98-10.81-10.59-10.81
	C145.92,186.41,140.95,191.39,140.95,197.22L140.95,197.22L140.95,197.22z M151.54,216.48c-10.6,0-19.46-8.66-19.46-19.26
	c0-10.81,8.86-19.24,19.46-19.24c4.11,0,7.78,1.08,11.03,3.25v-15.58h9.29v49.94h-9.29v-2.38
	C159.32,215.17,155.65,216.48,151.54,216.48L151.54,216.48L151.54,216.48z M98.37,197.22c0,5.63,4.97,10.6,10.59,10.6
	c6.05,0,11.03-4.97,11.03-10.6c0-5.83-4.98-10.81-11.03-10.81C103.34,186.41,98.37,191.39,98.37,197.22L98.37,197.22L98.37,197.22z
	 M108.74,216.48c-10.59,0-19.24-8.66-19.24-19.26c0-10.81,8.64-19.24,19.24-19.24c4.11,0,8.01,1.08,11.25,3.25v-2.82h9.07v37.18
	h-9.07v-2.38C116.74,215.17,113.07,216.48,108.74,216.48L108.74,216.48L108.74,216.48z"/>
</svg>
