<?xml version="1.0" encoding="utf-8"?>
<!-- Generator: Adobe Illustrator 21.1.0, SVG Export Plug-In . SVG Version: 6.00 Build 0)  -->
<svg version="1.1" id="Слой_1" xmlns="http://www.w3.org/2000/svg" xmlns:xlink="http://www.w3.org/1999/xlink" x="0px" y="0px"
	 width="400px" height="220px" viewBox="0 0 400 220" style="enable-background:new 0 0 400 220;" xml:space="preserve">
<g>
	<path d="M53.3,196.7c0,4.9,4.2,9,9.2,9c2.7,0,5.3-1.3,7.1-3.5l0.7-0.8l8.4,5.8l-0.8,0.9c-3.7,4.6-9.3,7.2-15.4,7.2
		c-10.8,0-19.5-8.4-19.5-18.7S51.8,178,62.5,178c6.1,0,11.8,2.7,15.5,7.3l0.8,0.9l-8.4,5.8l-0.7-0.8c-1.8-2.2-4.5-3.5-7.2-3.5
		C57.6,187.7,53.3,191.8,53.3,196.7z M152.9,179h9.4v35.2h-10.7l-14.1-19.7v19.7H128V179h9.6l15.2,19.9V179z M197.1,179h10.8
		l-11.5,35.2H181L169.5,179h10.8l7.8,25c0.1,0.3,0.4,0.4,0.6,0.4c0.2,0,0.6,0,0.6-0.4v0.1L197.1,179z M284,214.3h-10.6l-6.1-12.3
		c-0.2-0.3-0.6-0.4-1.1-0.4h-4.2v12.7h-9.4V179h18c6.1,0,11.2,4.5,11.6,10.4c0.3,4.3-1.9,8.3-5.6,10.4L284,214.3z M272.4,190.3
		c0-1.1-0.9-1.9-2.1-1.9h-8.3v3.8h8.3C271.5,192.2,272.4,191.4,272.4,190.3z M328.8,179H357v9.4h-18.8v3.8h16.9v8.5h-16.9v4.2H357
		v9.4h-28.2V179z M321,203.6v0.1c0,7.4-6.2,11.8-15,11.8c-6.4,0-12.9-2-17.4-6l5.7-6.7c3.6,2.9,7.7,4.4,11.9,4.4
		c2.7,0,4.5-0.9,4.5-2.5v-0.1c0-1.5-1.4-2.3-6.3-3.5c-7.7-1.8-13.9-3.9-13.9-11.4v-0.1c0-6.7,5.2-11.6,14-11.6
		c6.2,0,10.9,1.7,14.9,4.8l-5.6,6.7c-3.6-2.1-6.2-3.1-9.4-3.1c-2.4,0-3.4,1-3.4,2.3v0.1c0,1.7,1.4,2.4,6.5,3.5
		C315.6,194.1,321,196.8,321,203.6z M120.7,196.7c0,10.3-8.5,18.7-19.1,18.7c-10.5,0-19.1-8.4-19.1-18.7c0-10.3,8.5-18.7,19.1-18.7
		C112.1,178,120.7,186.4,120.7,196.7z M110.5,196.7c0-4.9-4-8.9-8.9-8.9c-4.9,0-8.9,4-8.9,8.9c0,4.9,4,8.9,8.9,8.9
		C106.5,205.7,110.5,201.7,110.5,196.7z M215.2,179h28.2v9.4h-18.8v3.8h16.9v8.5h-16.9v4.2h18.8v9.4h-28.2V179z M161.1,70l31.6,10.3
		l-31.6,10.3v33.3l-19.6-26.9l-31.6,10.3l19.6-26.9l-19.6-26.9l31.6,10.3l19.6-26.9V70z M230.6,80.3l-69.5,75.8h59.4l69.5-75.8
		L220.6,4.4h-59.4L230.6,80.3z"/>
</g>
</svg>
