<?xml version="1.0" encoding="utf-8"?>
<!-- Generator: Adobe Illustrator 22.1.0, SVG Export Plug-In . SVG Version: 6.00 Build 0)  -->
<svg version="1.1" id="Слой_1" xmlns="http://www.w3.org/2000/svg" xmlns:xlink="http://www.w3.org/1999/xlink" x="0px" y="0px"
	 width="400px" height="220px" viewBox="0 0 400 220" style="enable-background:new 0 0 400 220;" xml:space="preserve">
<g>
	<polygon points="4.4,85.9 12.4,77.6 48.7,77.6 57.1,85.9 57.1,99.4 41,99.4 41,94 20.2,94 20.2,127.7 41.2,127.7 41.2,119.1 
		32.3,119.1 32.3,102.7 57.5,102.7 57.5,135.5 49,143.8 13,143.8 4.4,135.5 	"/>
	<rect x="63.8" y="102.9" width="24.2" height="16.1"/>
	<polygon points="94.3,110.5 94.3,86 102.6,77.6 139.5,77.6 148.2,85.9 148.2,99.4 131.7,99.4 131.7,94.1 110.7,94.1 110.7,103.1 
		139.9,103.1 148.3,111.8 148.3,135.9 139.6,143.8 102.8,143.8 94.2,135.7 94.2,122.7 110.5,122.7 110.5,127.8 131.3,127.8 
		131.3,119.2 103.2,119.2 	"/>
	<polygon points="193.8,77.6 193.8,103 173.1,103 173.1,77.6 156.7,77.6 156.7,144 173.1,144 173.1,119.3 193.8,119.3 193.8,144 
		210.1,144 210.1,77.6 	"/>
	<path d="M255.3,127.7V93.9h-20.4v33.9H255.3z M218.6,135.5V86.2l8.6-8.6H263l8.6,8.5v49.4l-8.5,8.3h-36.4l-8.1-8"/>
	<polygon points="280.1,135.5 280.1,85.9 288.8,77.6 325.3,77.6 333.5,85.9 333.5,102.7 317.4,102.7 317.4,94.2 296.8,94.2 
		296.8,127.8 317.5,127.8 317.5,118.9 333.4,118.9 333.4,135.5 325.1,143.8 288.2,143.8 	"/>
	<polygon points="396.4,77.6 376.4,77.6 358.7,102.1 358.7,77.6 342,77.6 342,143.8 358.7,143.8 358.7,120 376.1,143.8 395.9,143.8 
		372.8,110.8 	"/>
</g>
</svg>
