<?xml version="1.0" encoding="utf-8"?>
<!-- Generator: Adobe Illustrator 19.2.1, SVG Export Plug-In . SVG Version: 6.00 Build 0)  -->
<svg version="1.1" id="Lacoste" xmlns="http://www.w3.org/2000/svg" xmlns:xlink="http://www.w3.org/1999/xlink" x="0px" y="0px"
	 width="400px" height="220px" viewBox="0 0 400 220" style="enable-background:new 0 0 400 220;" xml:space="preserve">
<title>Lacoste</title>
<g>
	<g>
		<polygon class="st0" points="376.4,118.1 376.4,116.9 373.4,114.5 372.7,113.2 372.7,112 370.2,110.7 364,110.7 360.4,113.2 
			357.9,112 356.7,112 355.4,113.2 356.7,116.9 362.8,116.9 366.5,115.7 367.7,118.1 370.2,121.8 373.9,123.1 377.6,123.1 
			391.1,124.3 393.6,123.1 389.9,121.8 378.8,118.1 		"/>
		<g>
			<path d="M139.6,130.7c10.7,0,20.1-7.2,20.1-19.3S150.3,92,139.6,92c-10.7,0-20.1,7.2-20.1,19.3S129,130.7,139.6,130.7
				 M70.9,129.9h7.8L60.8,92.8h-7.4l-16.5,37.2h6.9l3.6-8.4H67L70.9,129.9z M263.6,92.8h-28.2v37.2h28.8V124H242v-9.7h18.9v-5.9H242
				v-9.6h21.6V92.8z M164.8,126.2c1.5,1.2,6,4.4,14,4.4c8,0,14.5-4.3,14.5-11.1c0-14.1-20.5-9.6-20.5-17.3c0-2.2,1.8-4,6.5-4
				c5.7,0,9.3,2.5,10.8,3.7l2.7-5.5c-1.7-1.6-6.9-4.4-13.5-4.4c-9.9,0-14,5.6-14,11c0,12.8,20.5,9.1,20.5,16.8
				c0,3.2-3.2,4.6-6.9,4.6c-5.6,0-10-2.5-11.9-3.9L164.8,126.2z M100.1,98.6c5.6,0,8.7,3,10.5,4.6l4.6-4.5C113.7,97,109.3,92,100,92
				c-10.7,0-20.1,7.2-20.1,19.3s9.3,19.3,20,19.3c8.2,0,13.8-4.4,15.6-6l-3.7-5.2c-2.9,2.5-7.5,4.6-11.8,4.6
				c-7.4,0-12.9-5.6-12.9-12.7C87.1,104.2,92.7,98.6,100.1,98.6 M139.6,124.1c-7.4,0-12.9-5.6-12.9-12.7c0-7.2,5.6-12.7,12.9-12.7
				c7.4,0,12.9,5.6,12.9,12.7C152.5,118.5,147,124.1,139.6,124.1 M210,98.7v31.2h6.6V98.7h13v-5.9h-32.3v5.9H210z M12.6,92.8H6v37.2
				h26.3V124H12.6V92.8z M56.9,99.3l7.5,16.5H49.8L56.9,99.3z"/>
			<path class="st1" d="M393.2,122.1c-0.8-0.5-1.5-0.6-2.2-0.8c-1-0.3-1.3-1.5-1.7-1.7c-0.7-0.3-1.4,0.9-1.9,0.7
				c-0.5-0.1-0.6-1.6-1-1.8c-0.7-0.3-1.5,0.9-1.9,0.7c-0.4-0.1-0.7-1.6-1.1-1.7c-0.7-0.3-1.5,0.9-2,0.8c-0.4-0.1-0.6-1.7-0.9-1.8
				c-0.8-0.3-1.5,0.9-2.2,0.8c-0.4-0.1-1.4-0.2-2.7-1.1c-0.4-0.2-1.1-0.9-1.2-0.9c-0.1-0.1-0.5-0.1-0.4,0.5c0.2,1.6,2.9,2.7,5.9,3.6
				c3.1,0.9,6.2,1.7,8,2.6c1.1,0.5,1.6,1.2,1.2,1.8c-0.3,0.5-1.1,0.5-2,0.1c-0.9-0.4-1-1.2-1.6-1.3c-0.7-0.2-1.6,1.2-2.2,1
				c-0.7-0.2-0.8-1.7-1.4-1.9c-0.8-0.2-1.8,1.1-2.3,1c-0.6-0.1-0.8-1.8-1.3-1.9c-0.9-0.2-1.8,1.1-2.4,1c-0.6-0.1-0.9-1.7-1.3-1.9
				c-0.9-0.4-2.1,1-3.3,0.3c-4-2.7-3.2-4.1-6.2-5c-1.6-0.5-3.5,0.1-4.7,0.2c-2.7,0.3-2.6-2-2.6-2c0.8,0.2,1.9,0.7,3.9-0.1
				c2.2-0.8,3.4-0.9,6.2,0c2.4,0.8,3.8,0.1,4.6-0.1c0.4-0.1,0.7-0.3,1.5,0.2c0.8,0.5,1.5,1,1.9,0.9c0.6-0.3,0.4-1.9,1.4-2.2
				c0.5-0.2,1.7,1.1,2.3,0.9c0.6-0.2,0.4-1.9,1.4-2.2c0.5-0.1,1.7,1.1,2.3,0.9c0.6-0.2,0.4-1.9,1.4-2.2c0.5-0.2,1.7,1.1,2.3,0.9
				c0.6-0.2,0.4-1.9,1.4-2.2c0.5-0.2,1.7,1.1,2.3,0.9c0.5-0.2,0.5-0.6,0.9-1.8l0.5-0.6c0.6-0.5,1.5-1.6,1-2.8
				c-0.5-1.1-1.5-1.1-3.8-0.6c-1.9,0.4-13.7,3-13.7,3c-1.8-3.4-3.1-1.2-5.8-1.5c-1.7-0.2-4.5-2-8.9,2.1c-2.4-0.7-4.5-0.1-6,0.8
				c-2.6-1.1-7.7-3.7-17.3-3.7c-2.7,0-9.2,0.5-19.5,3.2c-2.6,0.7-5.1,0.6-5.6-1c-0.6-1.6,1.5-3.4,5.5-5.3
				c9.9-4.7,16.5-3.6,29.8-10.7c7.1-3.8,7.6-8.2,7.6-9.3c0-0.7-0.7-1-1.2-0.4c-2.4,3.3-3,3.1-3.8,2.3c-1-1-1.7,0.6-2.7,1.4
				c-0.8,0.6-1-0.1-1.6-0.5c-1.1-0.7-2.1,1.4-3,1.9c-1.1,0.5-1.3-0.1-1.7-0.5c-0.3-0.3-0.7-0.3-1.1,0c-2.3,2.2-2.6,1.9-3.3,1.2
				c-0.5-0.5-0.8-0.9-2.2,0.6c-0.8,0.9-2.3,1.9-2.7,0.8c-0.4-1.1-0.8-1.7-2.9,0.2c-1.2,1.1-2.1,1.2-2.4,0.7c-0.4-0.5-0.3-2-2.3-0.5
				c-1.8,1.4-2.6,2.2-3.2,0.9c-0.6-1.3-1.8-0.2-2.8,0.7c-0.5,0.5-1.4,1.6-2,0.5c-0.7-1.2-1.8,0-3.2,1.5c-0.8,0.8-1.3,0.5-2.1-0.1
				c-0.9-0.6-1.8,1.7-3.2,3c-0.2,0.2-0.6,0.4-1.4-0.2c-1-0.7-2.6,2.9-3.1,3.8c-0.8,1.4-1.6-0.4-2.4,0.9c-2,3-4.2,6.3-4.8,12.1
				c-0.7,7,1.9,12.7,4.5,14.8c0,0-0.3,0.8-0.7,1.8c-0.7,2-1,4.5-0.1,6.3c0.9,1.7,3.1,4.6,3.8,1.9c0.4-1.3,0.8-1.3,2-0.3
				c1.9,1.4,1.5-1.1,1.8-1.9c0.3-0.5,0.6-0.7,2.2,0.3c0.9,0.6,1.2-0.2,1.5-1.3c0.8-3.5-0.8-4.3-2.4-4.7c-1.2-0.2-2.4,0-2.4,0
				c2.6-4,2.9-6.1,0-8.1c0.4-0.2,0.8-0.1,1.2,0.1c0.7,0.3,1.3,0.9,1.7,1.5c0.4,0.7,1.1,2.3-0.3,5.1c0.6,0,2.7,0.1,3.7,2.3
				c1.3,0.4,9.5,1.1,13.1,0.5c1.3-0.2,1.9-1.4,3.2-2.6c1.4-1.3,3.1-2.8,4.6-1.7c-2.5,1-4.3,3-4.3,5.5c0,1.9,0.8,2.6,2.1,3.7
				c1.2,1,1.6,2.6,2,3.8c0.6,1.6,1.7,1.6,2,0.1c0.4-2.1,1-1.7,1.8-0.8c1,1.1,1.7,0.9,1.7-0.6c0-1.5,0.4-2.2,2.1-0.5
				c0.7,0.7,1.5,0.7,1.4-0.8c0-1.8,0.8-1.6,1.8-0.9c0.4,0.3,0.6,0.5,0.8,0.5c0.8,0,1.3-1.6,0.7-2.8c-0.3-0.6-0.8-1.5-4.9-2.4
				c-1.4-0.3-1.1-1.2-1.1-1.2c10.1,0.5,18.7-0.8,24.4-4.2c6.9,1.7,17.1,1.8,20.5,1.8c3.3,0,5.9-0.2,8-1.2
				C394.6,124.3,394.2,122.7,393.2,122.1 M372.2,106.3c0.2-0.5,0.6-0.9,1-0.9c0.8,0,1.1,0.8,1.1,1.1l-1.9,0.4
				C372,107,372,106.7,372.2,106.3 M367.4,106.1c1.3,0,2.1,1,2.2,1.4c0,0-2,0.4-2.8,0.6c-0.5,0.1-0.9-0.1-1-0.5
				C365.8,107.1,366.3,106.1,367.4,106.1 M313.6,94.2c0.9-0.4,1.8-0.7,2.8-0.9l0.3,0.2c-0.2,0.6-0.3,1.3-0.4,2l-0.3,0.2
				c-0.7-0.4-1.5-0.7-2.3-1.1V94.2 M309.4,96.2c0.9-0.4,1.8-0.7,2.8-0.9l0.3,0.2c-0.2,0.6-0.3,1.3-0.4,1.9l-0.3,0.2
				c-0.7-0.4-1.5-0.7-2.3-1.1L309.4,96.2 M311.2,100.6l0.3,0.2c-0.2,0.6-0.3,1.3-0.5,2l-0.3,0.2c-0.7-0.4-1.5-0.7-2.3-1.1v-0.3
				C309.3,101.1,310.2,100.8,311.2,100.6 M309.4,104.3c-0.2,0.6-0.3,1.3-0.5,2l-0.3,0.2c-0.7-0.4-1.5-0.7-2.3-1.1V105
				c0.9-0.4,1.8-0.7,2.8-0.9L309.4,104.3 M305.6,98.8c0.9-0.4,1.8-0.7,2.8-0.9l0.3,0.2c-0.2,0.6-0.3,1.3-0.4,2l-0.3,0.2
				c-0.7-0.3-1.5-0.7-2.3-1.1V98.8 M302.6,102.1c0.9-0.4,1.8-0.7,2.8-0.9l0.3,0.2c-0.2,0.6-0.3,1.3-0.4,2l-0.3,0.2
				c-0.7-0.4-1.5-0.7-2.3-1.1V102.1 M301.5,106c0.9-0.4,1.8-0.7,2.8-0.9l0.3,0.2c-0.2,0.6-0.3,1.3-0.4,1.9l-0.3,0.2
				c-0.7-0.3-1.5-0.7-2.3-1.1V106 M302,110.2l0-0.3c0.9-0.4,1.8-0.7,2.8-0.9l0.3,0.2c-0.2,0.6-0.3,1.3-0.4,2l-0.3,0.2
				C303.6,111,302.8,110.6,302,110.2 M307,114.9l-0.3,0.2c-0.7-0.4-1.5-0.7-2.3-1.1l0-0.3c0.9-0.4,1.8-0.7,2.8-0.9l0.3,0.2
				C307.3,113.6,307.2,114.2,307,114.9 M306.8,109.1v-0.3c0.9-0.4,1.8-0.7,2.8-0.9l0.3,0.2c-0.2,0.6-0.3,1.3-0.4,2l-0.3,0.2
				C308.4,109.9,307.6,109.5,306.8,109.1 M311.2,117.1l-0.3,0.2c-0.7-0.4-1.5-0.7-2.3-1.1l0-0.3c0.9-0.4,1.8-0.7,2.8-0.9l0.3,0.2
				C311.5,115.7,311.3,116.4,311.2,117.1 M312.1,113l-0.3,0.2c-0.7-0.4-1.5-0.7-2.3-1.1v-0.3c0.9-0.4,1.8-0.7,2.8-0.9l0.3,0.2
				C312.4,111.6,312.2,112.3,312.1,113 M316.3,115c-0.2,0.6-0.3,1.3-0.4,2l-0.3,0.2c-0.7-0.4-1.5-0.7-2.3-1.1l0-0.3
				c0.9-0.4,1.8-0.7,2.8-0.9L316.3,115 M316.5,112.8c-0.7-0.3-1.5-0.7-2.3-1.1v-0.3c0.9-0.4,1.8-0.7,2.8-0.9l0.3,0.2
				c-0.2,0.6-0.3,1.3-0.4,1.9L316.5,112.8 M320.1,118c-0.2,0.6-0.3,1.3-0.4,1.9l-0.3,0.2c-0.7-0.4-1.5-0.7-2.3-1.1v-0.3
				c0.9-0.4,1.8-0.7,2.8-0.9L320.1,118 M321,113.8c-0.2,0.6-0.3,1.3-0.5,2l-0.3,0.2c-0.7-0.4-1.5-0.7-2.3-1.1l0-0.3
				c0.9-0.4,1.8-0.7,2.8-0.9L321,113.8 M321.6,111.3l-0.3,0.2c-0.7-0.3-1.5-0.7-2.3-1.1l0-0.3c0.9-0.4,1.8-0.7,2.8-0.9l0.3,0.2
				C321.8,110,321.7,110.6,321.6,111.3 M324.4,118.6l-0.3,0.2c-0.7-0.4-1.5-0.7-2.3-1.1l0-0.3c0.9-0.4,1.8-0.7,2.8-0.9l0.3,0.2
				C324.7,117.2,324.6,117.9,324.4,118.6 M325.4,114.5l-0.3,0.2c-0.7-0.4-1.5-0.7-2.3-1.1v-0.3c0.9-0.4,1.8-0.7,2.8-0.9l0.3,0.2
				C325.6,113.2,325.5,113.8,325.4,114.5 M326,110.4c-0.7-0.3-1.5-0.7-2.3-1.1l0-0.3c0.9-0.4,1.8-0.7,2.8-0.9l0.3,0.2
				c-0.2,0.6-0.3,1.3-0.4,2L326,110.4 M329.8,115.6c-0.2,0.6-0.3,1.3-0.5,2l-0.3,0.2c-0.7-0.4-1.5-0.7-2.3-1.1v-0.3
				c0.9-0.4,1.8-0.7,2.8-0.9L329.8,115.6 M330.7,111.5c-0.2,0.6-0.3,1.3-0.4,2l-0.3,0.2c-0.7-0.4-1.5-0.7-2.3-1.1l0-0.3
				c0.9-0.4,1.8-0.7,2.8-0.9L330.7,111.5 M330.8,109.5c-0.7-0.3-1.5-0.7-2.3-1.1v-0.3c0.9-0.4,1.8-0.7,2.8-0.9l0.3,0.2
				c-0.2,0.6-0.3,1.3-0.5,1.9L330.8,109.5 M334.5,115.1c-0.1,0.6-0.3,1.3-0.4,2l-0.3,0.2c-0.7-0.4-1.5-0.7-2.3-1.1l0-0.3
				c0.9-0.4,1.8-0.8,2.8-0.9L334.5,115.1 M335.4,111c-0.2,0.6-0.3,1.3-0.4,2l-0.3,0.2c-0.7-0.4-1.5-0.7-2.3-1.1l0-0.3
				c0.9-0.4,1.8-0.7,2.8-0.9L335.4,111 M335.9,109l-0.3,0.2c-0.7-0.4-1.5-0.7-2.3-1.1l0-0.3c0.9-0.4,1.8-0.7,2.8-0.9l0.3,0.2
				C336.2,107.7,336,108.3,335.9,109 M339.3,115.3c-0.2,0.6-0.3,1.3-0.5,1.9l-0.3,0.2c-0.7-0.4-1.5-0.7-2.3-1.1V116
				c0.9-0.4,1.8-0.7,2.8-0.9L339.3,115.3 M340.2,111.2c-0.2,0.6-0.3,1.3-0.5,2l-0.3,0.2c-0.7-0.4-1.5-0.7-2.3-1.1l0-0.3
				c0.9-0.4,1.8-0.7,2.8-0.9L340.2,111.2 M341.1,107.1c-0.2,0.6-0.3,1.3-0.5,2l-0.3,0.2c-0.7-0.4-1.5-0.7-2.3-1.1l0-0.3
				c0.9-0.4,1.8-0.7,2.8-0.9L341.1,107.1 M344.3,114l-0.3,0.2c-0.7-0.4-1.5-0.7-2.3-1.1l0-0.3c0.9-0.4,1.8-0.7,2.8-0.9l0.3,0.2
				C344.6,112.7,344.4,113.3,344.3,114 M345.6,107.9c-0.1,0.6-0.3,1.3-0.4,2l-0.3,0.2c-0.7-0.4-1.5-0.7-2.3-1.1v-0.3
				c0.9-0.4,1.8-0.7,2.8-0.9L345.6,107.9 M350,109.4c-0.1,0.6-0.3,1.3-0.4,2l-0.3,0.2c-0.7-0.3-1.5-0.7-2.3-1.1v-0.3
				c0.9-0.4,1.8-0.7,2.8-0.9L350,109.4"/>
		</g>
	</g>
</g>
</svg>
