<?xml version="1.0" encoding="utf-8"?>
<!-- Generator: Adobe Illustrator 19.2.1, SVG Export Plug-In . SVG Version: 6.00 Build 0)  -->
<svg version="1.1" id="New_Balance" xmlns="http://www.w3.org/2000/svg" xmlns:xlink="http://www.w3.org/1999/xlink" x="0px" y="0px"
	 width="400px" height="220px" viewBox="0 0 400 220" enable-background="new 0 0 400 220" xml:space="preserve">
<title>New Balance</title>
<g>
	<g>
		<polygon points="166.4,102.4 121.5,104 164.2,106.4 		"/>
		<polygon points="161,111.8 116,113.4 158.8,115.8 		"/>
		<polygon points="155.7,121.4 110.6,122.9 153.5,125.3 		"/>
		<polygon points="150.4,130.8 105.3,132.5 148.1,134.8 		"/>
		<polygon points="205.5,54.7 148.1,56.7 205.7,59.9 		"/>
		<polygon points="205.1,45.3 153.6,47.1 205.3,50.1 		"/>
		<polygon points="204.8,36.2 158.8,37.8 205,40.3 		"/>
		<polygon points="204.5,27 164.2,28.3 204.6,30.7 		"/>
		<polygon points="204.2,19.5 169.2,19.5 204.3,21.3 		"/>
		<polygon points="100,142 144,142 145,140.3 		"/>
		<g>
			<path d="M297.4,19.8h-64.8l-1.8,3.3l32.4,1.7c0.4,0,0.4,0.5-0.2,0.5l-34.2,1.1l-3.3,5.8l32.2,1.9c0.4,0.1,0.3,0.6-0.1,0.6
				l-34.2,1.1l-3.2,5.5l32.2,1.8c0.7,0.1,0.7,0.6,0,0.6L218.3,45l-3.2,5.8l32.1,1.8c0.7,0.1,0.6,0.7,0,0.7L213,54.5l-3.3,5.7
				l32.1,1.8c0.5,0.1,0.5,0.6-0.1,0.6L143.2,66l93.4,5.2c0.6,0,0.5,0.8-0.1,0.8l-98.6,3.5l93.4,5.2c0.4,0,0.5,0.7-0.1,0.7l-98.8,3.6
				l93.4,5.2c0.4,0.1,0.8,0.8-0.1,0.8l-98.6,3.5l93.4,5.2c0.3,0.1,0.5,0.8-0.1,0.8l-49.6,1.8l0.2,4.5l44.2,2.5
				c0.3,0.1,0.5,0.7-0.1,0.7l-43.9,1.6l0.2,5l38.4,2.1c0.4,0.1,0.5,0.8-0.1,0.8l-38.1,1.3l0.2,5.5l32.7,1.8c0.4,0.1,0.5,0.8-0.2,0.8
				l-32.4,1.2l0.2,6l27,1.5c0.4,0.1,0.4,0.7-0.2,0.7l-26.8,1l0.1,2.6h87.2c23.1,0,43.9-16.9,47.8-30.3c3.9-13.4,3.9-25.5-14.7-31.6
				c10.4-2.4,28.4-14.1,32-30.3C328,34.8,322.6,19.8,297.4,19.8 M253.5,113.6h-26.8l15.1-26.8h19.9
				C282.3,86.8,272.3,113.6,253.5,113.6 M288.2,56.1c-0.9,3.2-7.4,11.5-15.6,11.5h-19.9l12.8-22.5h10.2
				C288.6,45.5,289.1,52.9,288.2,56.1"/>
			<path d="M395.6,180.5c0-10.4-8.6-19.1-19-19.1c-10.7,0-19.4,8.8-19.4,19.7c0,10.8,8.6,19.4,19.4,19.4c7.9,0,15.4-5.4,17.6-12.8
				h-9.9c-2,3.1-4.5,4.5-8,4.5c-4.5,0-8.4-3-9.7-7.4h28.5C395.5,182.9,395.6,181.9,395.6,180.5 M366.4,177.9
				c1.3-5.1,5.3-8.3,10.3-8.3s8.9,3.2,10.1,8.3H366.4z"/>
			<path d="M267.7,163.2v3c-2.8-3-6.9-4.8-11.3-4.8c-9.7,0-18,8.3-18,19.1c0,10.2,7.3,19.3,18.2,19.3c4.8,0,8.4-1.1,11.9-5v4.8h8.2
				v-36.5H267.7z M257.6,192.2c-6.2,0-11.3-5.1-11.3-11.3c0-6.2,5.1-11.3,11.3-11.3c6.2,0,11.3,5.1,11.3,11.3
				C269,187.1,263.9,192.2,257.6,192.2"/>
			<path d="M22.3,161.4c-3.7,0-6.5,1.3-9.6,4.5v-3.6H4.4v37.4h9v-17.6c0-4.8,0.4-12.4,7-12.4c6.2,0,6.9,7.2,6.9,11.7v18.3h9v-20
				c0-5.3-0.4-7.8-1.8-10.7C32.3,164.5,27.4,161.4,22.3,161.4"/>
			<path d="M78.1,180.5c0-10.4-8.6-19.1-19-19.1c-10.7,0-19.4,8.8-19.4,19.7c0,10.8,8.6,19.4,19.4,19.4c7.9,0,15.4-5.4,17.6-12.8
				h-9.9c-2,3.1-4.5,4.5-8,4.5c-4.5,0-8.4-3-9.7-7.4h28.5C78,182.9,78.1,181.9,78.1,180.5 M48.9,177.9c1.3-5.1,5.3-8.3,10.3-8.3
				s8.9,3.2,10.1,8.3H48.9z"/>
			<rect x="225.7" y="149.8" width="9" height="49.9"/>
			<path d="M300.4,161.4c-3.7,0-6.5,1.3-9.6,4.5v-3.6h-8.3v37.4h9v-17.6c0-4.8,0.4-12.4,7-12.4c6.2,0,6.9,7.2,6.9,11.7v18.3h9v-20
				c0-5.3-0.4-7.8-1.8-10.7C310.3,164.5,305.4,161.4,300.4,161.4"/>
			<path d="M336.6,169.6c4.1,0,6.5,1.3,8.7,5.1h10.1c-2.8-8-9.9-13.4-18.5-13.4c-10.9,0-19.7,8.7-19.7,19.4
				c0,10.8,8.8,19.7,19.7,19.7c5.5,0,11-2.4,14.7-6.5c1.9-2.1,2.6-3.3,3.8-6.6h-10.1c-2.1,3.2-4.8,4.9-8.2,4.9
				c-6.3,0-10.9-4.9-10.9-11.3C326.3,174.4,330.7,169.6,336.6,169.6"/>
			<polygon points="112.4,185.1 106,162.3 98.8,162.3 92.4,185.1 84.8,162.3 76.9,162.3 89.4,199.7 95.1,199.7 102.4,175.4 
				109.5,199.7 115.5,199.7 127.5,162.3 120.1,162.3 			"/>
			<path d="M160.5,161.5c-4.4,0-8.5,1.7-11.3,4.8v-16.4h-9v49.9h8.2v-4.8c3.4,3.9,7.1,5,11.9,5c10.9,0,18.2-9.1,18.2-19.3
				C178.5,169.8,170.2,161.5,160.5,161.5 M159.2,192.2c-6.2,0-11.3-5.1-11.3-11.3c0-6.2,5.1-11.3,11.3-11.3
				c6.2,0,11.3,5.1,11.3,11.3C170.5,187.1,165.5,192.2,159.2,192.2"/>
			<path d="M210.8,163.2v3c-2.8-3-6.9-4.8-11.3-4.8c-9.7,0-18,8.3-18,19.1c0,10.2,7.3,19.3,18.2,19.3c4.8,0,8.4-1.1,11.9-5v4.8h8.2
				v-36.5H210.8z M200.7,192.2c-6.2,0-11.3-5.1-11.3-11.3c0-6.2,5.1-11.3,11.3-11.3c6.2,0,11.3,5.1,11.3,11.3
				C212,187.1,207,192.2,200.7,192.2"/>
		</g>
	</g>
</g>
</svg>
