<?xml version="1.0" encoding="utf-8"?>
<!-- Generator: Adobe Illustrator 19.2.1, SVG Export Plug-In . SVG Version: 6.00 Build 0)  -->
<svg version="1.1" id="Nike" xmlns="http://www.w3.org/2000/svg" xmlns:xlink="http://www.w3.org/1999/xlink" x="0px" y="0px"
	 width="400px" height="220px" viewBox="0 0 400 220" style="enable-background:new 0 0 400 220;" xml:space="preserve">
<style type="text/css">
	.st0{fill:#534F4E;}
	.st1{fill:#928E8D;}
	.st2{fill:#12100B;}
</style>
<title>Nike</title>
<g>
	<path class="st0" d="M676,596l1.2,6c0.3,1.3,0.5,2.7,0.7,3.9h0.1c0.2-1.3,0.5-2.7,0.8-3.9l1.4-6.1h1.5l1.4,5.9
		c0.3,1.4,0.6,2.7,0.8,4.1h0.1c0.2-1.3,0.4-2.6,0.7-4l1.2-6h2l-3.1,12.3H683l-1.4-6c-0.3-1.2-0.5-2.3-0.7-3.7h-0.1
		c-0.2,1.5-0.4,2.6-0.7,3.8l-1.5,5.9H677l-3-12.3H676L676,596z"/>
	<path class="st0" d="M692.2,596l1.2,6c0.3,1.3,0.5,2.7,0.7,3.9h0.1c0.2-1.3,0.5-2.7,0.8-3.9l1.4-6.1h1.5l1.4,5.9
		c0.3,1.4,0.6,2.7,0.8,4.1h0.1c0.2-1.3,0.4-2.6,0.7-4l1.2-6h2l-3.1,12.3h-1.6l-1.4-6c-0.3-1.2-0.5-2.3-0.7-3.7H697
		c-0.2,1.5-0.4,2.6-0.7,3.8l-1.5,5.9h-1.7l-3-12.3H692.2L692.2,596z"/>
	<path class="st0" d="M708.4,596l1.2,6c0.3,1.3,0.5,2.7,0.7,3.9h0.1c0.2-1.3,0.5-2.7,0.8-3.9l1.4-6.1h1.5l1.4,5.9
		c0.3,1.4,0.6,2.7,0.8,4.1h0.1c0.2-1.3,0.4-2.6,0.7-4l1.2-6h2l-3.1,12.3h-1.6l-1.4-6c-0.3-1.2-0.5-2.3-0.7-3.7h-0.1
		c-0.2,1.5-0.4,2.6-0.7,3.8l-1.5,5.9h-1.7l-3-12.3H708.4L708.4,596z"/>
	<path class="st0" d="M721.9,607.1c0-0.9,0.6-1.5,1.3-1.5c0.8,0,1.3,0.6,1.3,1.5c0,0.9-0.5,1.5-1.3,1.5
		C722.5,608.6,721.9,608,721.9,607.1L721.9,607.1z"/>
	<polygon class="st0" points="728.3,590.7 730.2,590.7 730.2,608.4 728.3,608.4 728.3,590.7 	"/>
	<path class="st0" d="M735.8,602.2c0,2,0.4,4.8,2.1,4.8c1.7,0,2-2.9,2-4.8c0-1.9-0.4-4.8-2.1-4.8
		C736.2,597.4,735.8,600.3,735.8,602.2L735.8,602.2z M742,602.2c0,4.8-2.2,6.4-4.1,6.4c-2.2,0-4-2-4-6.3c0-4.5,2-6.4,4.1-6.4
		C740.2,595.9,742,597.9,742,602.2L742,602.2z"/>
	<path class="st0" d="M751,600.3c0-0.3,0-0.6-0.1-0.9c-0.2-0.8-0.7-1.9-1.8-1.9c-1.4,0-2.2,1.9-2.2,4.6c0,3.1,1,4.6,2.2,4.6
		c0.6,0,1.4-0.3,1.8-1.8c0.1-0.4,0.1-0.8,0.1-1.1V600.3L751,600.3z M752.9,606.8c0,3.2-0.4,4.5-1.2,5.4c-0.7,0.8-1.9,1.3-3.3,1.3
		c-1,0-2.1-0.3-2.7-0.6l0.5-1.5c0.5,0.3,1.3,0.5,2.3,0.5c1.6,0,2.5-1,2.5-3.8v-1.2h-0.1c-0.4,1-1.3,1.5-2.4,1.5
		c-2.2,0-3.6-2.5-3.6-6.1c0-4.5,2.1-6.4,3.9-6.4c1.3,0,1.9,0.9,2.3,1.6h0.1l0.1-1.4h1.7c0,0.8-0.1,1.9-0.1,3.8V606.8L752.9,606.8z"
		/>
	<path class="st0" d="M758.3,602.2c0,2,0.4,4.8,2.1,4.8c1.7,0,2-2.9,2-4.8c0-1.9-0.4-4.8-2.1-4.8
		C758.7,597.4,758.3,600.3,758.3,602.2L758.3,602.2z M764.5,602.2c0,4.8-2.2,6.4-4.1,6.4c-2.2,0-4-2-4-6.3c0-4.5,2-6.4,4.1-6.4
		C762.7,595.9,764.5,597.9,764.5,602.2L764.5,602.2z"/>
	<path class="st0" d="M773.2,600.9c0-2.4-0.9-3.5-1.8-3.5c-1.3,0-1.9,1.9-2,3.5H773.2L773.2,600.9z M769.3,602.4
		c0,3.8,1.5,4.6,2.9,4.6c0.9,0,1.6-0.2,2-0.5l0.3,1.4c-0.7,0.4-1.7,0.6-2.7,0.6c-3,0-4.5-2.4-4.5-6.2c0-4,1.7-6.5,4.2-6.5
		c2.5,0,3.5,2.7,3.5,5.4c0,0.5,0,0.8-0.1,1.1H769.3L769.3,602.4z"/>
	<path class="st0" d="M780.4,603.9c0,0.4,0,0.7,0.1,1c0.4,1.8,1.3,2.1,1.8,2.1c1.6,0,2.2-2.2,2.2-4.7c0-2.5-0.6-4.7-2.2-4.7
		c-0.9,0-1.7,1.1-1.8,2.2c-0.1,0.3-0.1,0.6-0.1,0.9V603.9L780.4,603.9z M778.5,599.9c0-1.9-0.1-3-0.1-3.8h1.7l0.1,1.6h0
		c0.7-1.3,1.7-1.8,2.6-1.8c2.2,0,3.6,2.3,3.6,6.3c0,4.6-1.9,6.4-3.8,6.4c-1.2,0-1.8-0.7-2.2-1.4h0v6.1h-1.9V599.9L778.5,599.9z"/>
	<path class="st0" d="M789.6,606.3c0.4,0.3,1.2,0.6,2,0.6c1.1,0,1.8-0.7,1.8-1.8c0-0.9-0.3-1.6-1.6-2.4c-1.6-1-2.5-2.1-2.5-3.5
		c0-2,1.5-3.4,3.4-3.4c1,0,1.7,0.3,2.2,0.6l-0.5,1.5c-0.5-0.3-1-0.6-1.7-0.6c-1,0-1.6,0.8-1.6,1.6c0,0.8,0.3,1.3,1.5,2.1
		c1.4,0.9,2.6,2,2.6,3.7c0,2.5-1.7,3.7-3.7,3.7c-0.9,0-1.9-0.3-2.4-0.7L789.6,606.3L789.6,606.3z"/>
	<path class="st0" d="M798.1,607.1c0-0.9,0.6-1.5,1.3-1.5c0.8,0,1.3,0.6,1.3,1.5c0,0.9-0.5,1.5-1.3,1.5
		C798.7,608.6,798.1,608,798.1,607.1L798.1,607.1z"/>
	<path class="st0" d="M810.5,608.1c-0.4,0.3-1.2,0.5-2,0.5c-2.7,0-4.5-2.2-4.5-6.2c0-3.5,1.8-6.4,4.9-6.4c0.7,0,1.4,0.2,1.7,0.4
		l-0.4,1.6c-0.3-0.1-0.8-0.3-1.4-0.3c-2,0-2.9,2.3-2.9,4.8c0,2.9,1.1,4.6,2.9,4.6c0.5,0,1-0.1,1.4-0.3L810.5,608.1L810.5,608.1z"/>
	<path class="st0" d="M814.7,602.2c0,2,0.4,4.8,2.1,4.8c1.7,0,2-2.9,2-4.8c0-1.9-0.4-4.8-2.1-4.8C815,597.4,814.7,600.3,814.7,602.2
		L814.7,602.2z M820.9,602.2c0,4.8-2.2,6.4-4.1,6.4c-2.2,0-4-2-4-6.3c0-4.5,2-6.4,4.1-6.4C819.1,595.9,820.9,597.9,820.9,602.2
		L820.9,602.2z"/>
	<path class="st0" d="M824.3,599.2c0-1.5-0.1-2.2-0.1-3.2h1.7l0.1,1.5h0.1c0.5-1,1.5-1.7,2.8-1.7c1.1,0,2.1,0.5,2.6,1.9h0.1
		c0.3-0.6,0.8-1.1,1.2-1.4c0.5-0.3,1.1-0.5,1.7-0.5c1.7,0,3,1.2,3,4.4v8.2h-1.9v-7.7c0-1.6-0.2-3.2-1.7-3.2c-0.8,0-1.5,0.7-1.8,1.9
		c-0.1,0.3-0.1,0.7-0.1,1.1v7.9h-1.9v-8.1c0-1.3-0.2-2.8-1.7-2.8c-0.8,0-1.6,0.7-1.8,2c-0.1,0.3-0.1,0.7-0.1,1v7.8h-1.9V599.2
		L824.3,599.2z"/>
	<path class="st1" d="M487,584.6v-1.1l1.2-1.6c1.7-2.4,3.7-5.1,3.7-7.7c0-1.6-0.7-2.6-2-2.6c-1,0-1.7,0.5-2.1,0.8l-0.4-1.3
		c0.5-0.4,1.5-1,2.8-1c2.4,0,3.4,1.8,3.4,3.9c0,2.7-1.7,5.3-3.5,7.7l-0.9,1.3v0h4.8v1.5H487L487,584.6z"/>
	<path class="st1" d="M498.1,577.5c0,3.5,0.6,5.9,2,5.9c1.4,0,1.9-2.4,1.9-5.9c0-3.3-0.6-5.9-1.9-5.9
		C498.7,571.6,498.1,574,498.1,577.5L498.1,577.5z M503.7,577.5c0,5.2-1.6,7.3-3.7,7.3c-2.2,0-3.6-2.6-3.6-7.3
		c0-4.8,1.4-7.3,3.8-7.3C502.5,570.2,503.7,572.9,503.7,577.5L503.7,577.5z"/>
	<path class="st1" d="M507.7,577.5c0,3.5,0.6,5.9,2,5.9c1.4,0,1.9-2.4,1.9-5.9c0-3.3-0.5-5.9-1.9-5.9
		C508.3,571.6,507.7,574,507.7,577.5L507.7,577.5z M513.3,577.5c0,5.2-1.7,7.3-3.7,7.3c-2.2,0-3.6-2.6-3.6-7.3
		c0-4.8,1.4-7.3,3.8-7.3C512.1,570.2,513.3,572.9,513.3,577.5L513.3,577.5z"/>
	<path class="st1" d="M515.4,587.4c0.5-1.3,1.1-3.6,1.3-5.1l1.9-0.2c-0.5,1.8-1.4,4.2-2,5.2L515.4,587.4L515.4,587.4z"/>
	<path class="st1" d="M522.6,577.5c0,3.5,0.6,5.9,2,5.9c1.4,0,1.9-2.4,1.9-5.9c0-3.3-0.5-5.9-1.9-5.9
		C523.2,571.6,522.6,574,522.6,577.5L522.6,577.5z M528.2,577.5c0,5.2-1.7,7.3-3.7,7.3c-2.2,0-3.6-2.6-3.6-7.3
		c0-4.8,1.4-7.3,3.8-7.3C527,570.2,528.2,572.9,528.2,577.5L528.2,577.5z"/>
	<path class="st1" d="M532.2,577.5c0,3.5,0.6,5.9,2,5.9c1.4,0,1.9-2.4,1.9-5.9c0-3.3-0.6-5.9-1.9-5.9
		C532.8,571.6,532.2,574,532.2,577.5L532.2,577.5z M537.8,577.5c0,5.2-1.6,7.3-3.7,7.3c-2.2,0-3.6-2.6-3.6-7.3
		c0-4.8,1.4-7.3,3.8-7.3C536.6,570.2,537.8,572.9,537.8,577.5L537.8,577.5z"/>
	<path class="st1" d="M541.8,577.5c0,3.5,0.6,5.9,2,5.9c1.4,0,1.9-2.4,1.9-5.9c0-3.3-0.6-5.9-1.9-5.9
		C542.4,571.6,541.8,574,541.8,577.5L541.8,577.5z M547.4,577.5c0,5.2-1.6,7.3-3.7,7.3c-2.2,0-3.6-2.6-3.6-7.3
		c0-4.8,1.4-7.3,3.8-7.3C546.2,570.2,547.4,572.9,547.4,577.5L547.4,577.5z"/>
	<polygon class="st1" points="556.3,572.9 556.3,578.2 561.3,578.2 561.3,579.4 556.3,579.4 556.3,584.6 555,584.6 555,579.4 
		550,579.4 550,578.2 555,578.2 555,572.9 556.3,572.9 	"/>
	<path class="st1" d="M570.7,580.9c0,0.2,0,0.5,0.1,0.7c0.4,1.6,1.1,1.8,1.6,1.8c1.4,0,1.8-1.8,1.8-4.1c0-2.1-0.5-4-1.9-4
		c-0.8,0-1.4,1-1.6,1.9c0,0.2,0,0.5,0,0.7V580.9L570.7,580.9z M569,569.4h1.7v5.9h0c0.6-1.1,1.3-1.4,2.3-1.4c1.7,0,2.9,1.9,2.9,5.4
		c0,3.8-1.6,5.6-3.2,5.6c-1.1,0-1.7-0.7-2.1-1.6h-0.1l-0.1,1.4h-1.4c0-0.6,0.1-1.8,0.1-2.6V569.4L569,569.4z"/>
	<path class="st1" d="M578.9,576.7c0-0.9-0.1-2-0.1-2.8h1.5l0.1,1.7h0c0.4-1,1.3-1.8,2.2-1.8c0.1,0,0.2,0,0.4,0v1.7
		c-0.1,0-0.2,0-0.4,0c-1.1,0-1.9,1-2,2.2c0,0.3-0.1,0.6-0.1,1v5.9h-1.7V576.7L578.9,576.7z"/>
	<path class="st1" d="M589.3,579.1c-0.9,0-2.9,0.2-2.9,2.5c0,1.4,0.7,1.9,1.3,1.9c0.7,0,1.4-0.5,1.6-1.6c0-0.2,0.1-0.4,0.1-0.6
		V579.1L589.3,579.1z M590.9,582.2c0,0.8,0,1.7,0.1,2.4h-1.5l-0.1-1.1h-0.1c-0.5,0.8-1.2,1.3-2.1,1.3c-1.4,0-2.5-1.2-2.5-3
		c0-2.7,2.1-3.9,4.5-3.9v-0.3c0-1.4-0.4-2.4-1.7-2.4c-0.7,0-1.3,0.2-1.8,0.6l-0.4-1.2c0.5-0.3,1.4-0.7,2.5-0.7c2.1,0,3,1.4,3,3.8
		V582.2L590.9,582.2z"/>
	<path class="st1" d="M594.4,576.7c0-1.3-0.1-1.9-0.1-2.8h1.5l0.1,1.3h0c0.5-0.9,1.3-1.5,2.4-1.5c1.5,0,2.6,1.1,2.6,3.7v7.2h-1.7
		v-6.8c0-1.3-0.2-2.5-1.5-2.5c-0.7,0-1.4,0.6-1.6,1.7c-0.1,0.3-0.1,0.6-0.1,1v6.7h-1.7V576.7L594.4,576.7z"/>
	<path class="st1" d="M609.2,578.1c0-0.2,0-0.5,0-0.7c-0.1-1.1-0.8-2.1-1.6-2.1c-1.4,0-1.9,2-1.9,4.1c0,2.2,0.6,4,1.8,4
		c0.5,0,1.3-0.3,1.6-1.8c0-0.2,0.1-0.4,0.1-0.7V578.1L609.2,578.1z M610.8,569.4v12.7c0,0.7,0.1,1.9,0.1,2.6h-1.5l-0.1-1.3h-0.1
		c-0.4,0.7-1.1,1.5-2.2,1.5c-1.8,0-3.1-1.9-3.1-5.5c0-3.8,1.6-5.5,3.2-5.5c0.8,0,1.5,0.4,2,1.3h0v-5.7H610.8L610.8,569.4z"/>
	<polygon class="st1" points="618.9,569.4 620.6,569.4 620.6,584.6 618.9,584.6 618.9,569.4 	"/>
	<path class="st1" d="M625.4,579.3c0,1.8,0.3,4.2,1.8,4.2c1.5,0,1.8-2.5,1.8-4.2c0-1.6-0.3-4.1-1.8-4.1
		C625.7,575.2,625.4,577.7,625.4,579.3L625.4,579.3z M630.7,579.3c0,4.1-1.9,5.5-3.5,5.5c-1.9,0-3.5-1.7-3.5-5.5
		c0-3.9,1.7-5.5,3.6-5.5C629.2,573.8,630.7,575.6,630.7,579.3L630.7,579.3z"/>
	<path class="st1" d="M638.4,577.7c0-0.3,0-0.6-0.1-0.8c-0.2-0.7-0.6-1.6-1.5-1.6c-1.2,0-1.9,1.7-1.9,4c0,2.7,0.9,3.9,1.9,3.9
		c0.5,0,1.2-0.2,1.5-1.5c0.1-0.3,0.1-0.7,0.1-1V577.7L638.4,577.7z M640.1,583.3c0,2.8-0.4,3.8-1.1,4.6c-0.6,0.7-1.6,1.1-2.8,1.1
		c-0.9,0-1.8-0.2-2.3-0.5l0.4-1.3c0.4,0.2,1.1,0.5,2,0.5c1.3,0,2.2-0.8,2.2-3.3v-1.1h0c-0.4,0.8-1.1,1.3-2,1.3
		c-1.9,0-3.1-2.1-3.1-5.3c0-3.9,1.8-5.5,3.4-5.5c1.1,0,1.6,0.7,2,1.3h0l0.1-1.2h1.5c0,0.7-0.1,1.7-0.1,3.3V583.3L640.1,583.3z"/>
	<path class="st1" d="M644.8,579.3c0,1.8,0.3,4.2,1.8,4.2c1.5,0,1.8-2.5,1.8-4.2c0-1.6-0.3-4.1-1.8-4.1
		C645.1,575.2,644.8,577.7,644.8,579.3L644.8,579.3z M650.1,579.3c0,4.1-1.9,5.5-3.5,5.5c-1.9,0-3.5-1.7-3.5-5.5
		c0-3.9,1.7-5.5,3.6-5.5C648.6,573.8,650.1,575.6,650.1,579.3L650.1,579.3z"/>
	<path class="st1" d="M652.8,582.9c0.4,0.2,1,0.5,1.7,0.5c0.9,0,1.6-0.6,1.6-1.5c0-0.8-0.3-1.4-1.4-2.1c-1.4-0.9-2.1-1.8-2.1-3
		c0-1.7,1.3-2.9,2.9-2.9c0.8,0,1.5,0.3,1.9,0.6l-0.4,1.3c-0.4-0.3-0.9-0.5-1.4-0.5c-0.9,0-1.4,0.7-1.4,1.4c0,0.7,0.3,1.1,1.3,1.8
		c1.2,0.8,2.2,1.8,2.2,3.2c0,2.1-1.5,3.2-3.2,3.2c-0.8,0-1.6-0.2-2.1-0.6L652.8,582.9L652.8,582.9z"/>
	<path class="st1" d="M665.1,584.6V574h1.7v10.6H665.1L665.1,584.6z M666.9,571.2c0,0.7-0.4,1.1-1,1.1c-0.5,0-1-0.4-1-1.1
		s0.4-1.1,1-1.1C666.5,570.1,666.9,570.6,666.9,571.2L666.9,571.2z"/>
	<path class="st1" d="M670.3,576.7c0-1.3-0.1-1.9-0.1-2.8h1.5l0.1,1.3h0c0.5-0.9,1.3-1.5,2.4-1.5c1.5,0,2.6,1.1,2.6,3.7v7.2h-1.7
		v-6.8c0-1.3-0.2-2.5-1.5-2.5c-0.7,0-1.4,0.6-1.6,1.7c-0.1,0.3-0.1,0.6-0.1,1v6.7h-1.7V576.7L670.3,576.7z"/>
	<path class="st1" d="M685.7,574l1.3,6c0.2,0.7,0.3,1.7,0.5,2.6h0.1c0.1-0.9,0.3-1.8,0.4-2.6l1.3-6h1.7l-2.8,10.6h-1.5l-2.8-10.6
		H685.7L685.7,574z"/>
	<path class="st1" d="M697.8,578.2c0-2.1-0.8-3.1-1.6-3.1c-1.1,0-1.7,1.6-1.7,3.1H697.8L697.8,578.2z M694.5,579.5
		c0,3.3,1.3,4,2.5,4c0.7,0,1.3-0.2,1.8-0.4l0.3,1.2c-0.6,0.3-1.5,0.5-2.4,0.5c-2.6,0-3.9-2.1-3.9-5.3c0-3.4,1.5-5.6,3.6-5.6
		c2.2,0,3,2.3,3,4.7c0,0.4,0,0.7,0,1H694.5L694.5,579.5z"/>
	<path class="st1" d="M707.5,584.4c-0.4,0.2-1,0.4-1.8,0.4c-2.3,0-3.9-1.9-3.9-5.4c0-3.1,1.5-5.5,4.2-5.5c0.6,0,1.2,0.2,1.5,0.3
		l-0.3,1.4c-0.2-0.1-0.7-0.3-1.2-0.3c-1.7,0-2.5,2-2.5,4.1c0,2.5,0.9,4,2.5,4c0.4,0,0.8-0.1,1.2-0.3L707.5,584.4L707.5,584.4z"/>
	<path class="st1" d="M712.5,571.5v2.5h2v1.3h-2v6.3c0,1.4,0.5,1.8,1.1,1.8c0.3,0,0.5,0,0.7-0.1l0.1,1.3c-0.3,0.1-0.7,0.2-1.3,0.2
		c-0.7,0-1.3-0.2-1.7-0.6c-0.4-0.5-0.6-1.2-0.6-2.7v-6.2h-1.3V574h1.3v-1.8L712.5,571.5L712.5,571.5z"/>
	<path class="st1" d="M718.2,579.3c0,1.8,0.3,4.2,1.8,4.2c1.5,0,1.8-2.5,1.8-4.2c0-1.6-0.3-4.1-1.8-4.1
		C718.5,575.2,718.2,577.7,718.2,579.3L718.2,579.3z M723.5,579.3c0,4.1-1.9,5.5-3.5,5.5c-1.9,0-3.5-1.7-3.5-5.5
		c0-3.9,1.7-5.5,3.6-5.5C722,573.8,723.5,575.6,723.5,579.3L723.5,579.3z"/>
	<path class="st1" d="M726.5,576.7c0-0.9-0.1-2-0.1-2.8h1.5l0.1,1.7h0c0.4-1,1.3-1.8,2.2-1.8c0.1,0,0.2,0,0.4,0v1.7
		c-0.1,0-0.2,0-0.4,0c-1.1,0-1.9,1-2,2.2c0,0.3-0.1,0.6-0.1,1v5.9h-1.7V576.7L726.5,576.7z"/>
	<path class="st1" d="M738,584.6v-9.4h-1.3V574h1.3v-0.6c0-1.2,0.2-2.3,0.9-3.2c0.6-0.7,1.5-0.9,2.1-0.9c0.6,0,1,0.1,1.3,0.3
		l-0.3,1.3c-0.2-0.1-0.5-0.2-0.9-0.2c-1.2,0-1.5,1.3-1.5,2.7v0.7h1.9v1.3h-1.9v9.4H738L738,584.6z"/>
	<path class="st1" d="M744.9,579.3c0,1.8,0.3,4.2,1.8,4.2c1.5,0,1.8-2.5,1.8-4.2c0-1.6-0.3-4.1-1.8-4.1
		C745.2,575.2,744.9,577.7,744.9,579.3L744.9,579.3z M750.2,579.3c0,4.1-1.9,5.5-3.5,5.5c-1.9,0-3.5-1.7-3.5-5.5
		c0-3.9,1.7-5.5,3.6-5.5C748.7,573.8,750.2,575.6,750.2,579.3L750.2,579.3z"/>
	<path class="st1" d="M753.2,576.7c0-0.9-0.1-2-0.1-2.8h1.5l0.1,1.7h0c0.4-1,1.3-1.8,2.2-1.8c0.1,0,0.2,0,0.4,0v1.7
		c-0.1,0-0.2,0-0.4,0c-1.1,0-1.9,1-2,2.2c0,0.3-0.1,0.6-0.1,1v5.9h-1.7V576.7L753.2,576.7z"/>
	<path class="st1" d="M759.7,576.7c0-1.3-0.1-1.9-0.1-2.8h1.5l0.1,1.3h0c0.5-0.9,1.3-1.5,2.4-1.5c1,0,1.8,0.5,2.2,1.6h0
		c0.3-0.5,0.7-1,1.1-1.2c0.4-0.3,0.9-0.4,1.5-0.4c1.4,0,2.6,1,2.6,3.8v7h-1.7V578c0-1.4-0.2-2.7-1.5-2.7c-0.7,0-1.3,0.6-1.6,1.6
		c0,0.3-0.1,0.6-0.1,0.9v6.8h-1.7v-7c0-1.2-0.2-2.4-1.5-2.4c-0.7,0-1.4,0.6-1.6,1.7c0,0.3-0.1,0.6-0.1,0.9v6.8h-1.7V576.7
		L759.7,576.7z"/>
	<path class="st1" d="M778.4,579.1c-0.9,0-2.9,0.2-2.9,2.5c0,1.4,0.7,1.9,1.3,1.9c0.7,0,1.4-0.5,1.6-1.6c0-0.2,0.1-0.4,0.1-0.6
		V579.1L778.4,579.1z M780.1,582.2c0,0.8,0,1.7,0.1,2.4h-1.5l-0.1-1.1h-0.1c-0.5,0.8-1.2,1.3-2.1,1.3c-1.4,0-2.5-1.2-2.5-3
		c0-2.7,2.1-3.9,4.5-3.9v-0.3c0-1.4-0.4-2.4-1.7-2.4c-0.7,0-1.3,0.2-1.8,0.6l-0.4-1.2c0.5-0.3,1.4-0.7,2.5-0.7c2.1,0,3,1.4,3,3.8
		V582.2L780.1,582.2z"/>
	<path class="st1" d="M785.4,571.5v2.5h2v1.3h-2v6.3c0,1.4,0.5,1.8,1.1,1.8c0.3,0,0.5,0,0.7-0.1l0.1,1.3c-0.3,0.1-0.7,0.2-1.3,0.2
		c-0.7,0-1.3-0.2-1.7-0.6c-0.4-0.5-0.6-1.2-0.6-2.7v-6.2h-1.3V574h1.3v-1.8L785.4,571.5L785.4,571.5z"/>
	<path class="st1" d="M798.6,579.1c-0.9,0-2.9,0.2-2.9,2.5c0,1.4,0.7,1.9,1.3,1.9c0.7,0,1.4-0.5,1.6-1.6c0-0.2,0.1-0.4,0.1-0.6
		V579.1L798.6,579.1z M800.3,582.2c0,0.8,0,1.7,0.1,2.4h-1.5l-0.1-1.1h-0.1c-0.5,0.8-1.2,1.3-2.1,1.3c-1.4,0-2.5-1.2-2.5-3
		c0-2.7,2.1-3.9,4.5-3.9v-0.3c0-1.4-0.4-2.4-1.7-2.4c-0.7,0-1.3,0.2-1.8,0.6l-0.4-1.2c0.5-0.3,1.4-0.7,2.5-0.7c2.1,0,3,1.4,3,3.8
		V582.2L800.3,582.2z"/>
	<path class="st1" d="M804.4,574l1.3,6c0.2,0.7,0.3,1.7,0.5,2.6h0.1c0.1-0.9,0.3-1.8,0.4-2.6l1.3-6h1.7l-2.8,10.6h-1.5l-2.8-10.6
		H804.4L804.4,574z"/>
	<path class="st1" d="M816,579.1c-0.9,0-2.9,0.2-2.9,2.5c0,1.4,0.7,1.9,1.3,1.9c0.7,0,1.4-0.5,1.6-1.6c0-0.2,0.1-0.4,0.1-0.6V579.1
		L816,579.1z M817.7,582.2c0,0.8,0,1.7,0.1,2.4h-1.5l-0.1-1.1h-0.1c-0.5,0.8-1.2,1.3-2.1,1.3c-1.4,0-2.5-1.2-2.5-3
		c0-2.7,2.1-3.9,4.5-3.9v-0.3c0-1.4-0.4-2.4-1.7-2.4c-0.7,0-1.3,0.2-1.8,0.6l-0.4-1.2c0.5-0.3,1.4-0.7,2.5-0.7c2.1,0,3,1.4,3,3.8
		V582.2L817.7,582.2z"/>
	<path class="st1" d="M821.2,584.6V574h1.7v10.6H821.2L821.2,584.6z M823,571.2c0,0.7-0.4,1.1-1,1.1c-0.5,0-1-0.4-1-1.1
		s0.4-1.1,1-1.1C822.6,570.1,823,570.6,823,571.2L823,571.2z"/>
	<polygon class="st1" points="826.3,569.4 828,569.4 828,584.6 826.3,584.6 826.3,569.4 	"/>
	<path class="st1" d="M835.6,579.1c-0.9,0-2.9,0.2-2.9,2.5c0,1.4,0.7,1.9,1.3,1.9c0.7,0,1.4-0.5,1.6-1.6c0-0.2,0.1-0.4,0.1-0.6
		V579.1L835.6,579.1z M837.2,582.2c0,0.8,0,1.7,0.1,2.4h-1.5l-0.1-1.1h-0.1c-0.5,0.8-1.2,1.3-2.1,1.3c-1.4,0-2.5-1.2-2.5-3
		c0-2.7,2.1-3.9,4.5-3.9v-0.3c0-1.4-0.4-2.4-1.7-2.4c-0.7,0-1.3,0.2-1.8,0.6l-0.4-1.2c0.5-0.3,1.4-0.7,2.5-0.7c2.1,0,3,1.4,3,3.8
		V582.2L837.2,582.2z"/>
	<path class="st1" d="M842.4,580.9c0,0.2,0,0.5,0.1,0.7c0.4,1.6,1.1,1.8,1.6,1.8c1.4,0,1.8-1.8,1.8-4.1c0-2.1-0.5-4-1.9-4
		c-0.8,0-1.4,1-1.6,1.9c0,0.2,0,0.5,0,0.7V580.9L842.4,580.9z M840.7,569.4h1.7v5.9h0c0.5-1.1,1.3-1.4,2.3-1.4
		c1.7,0,2.9,1.9,2.9,5.4c0,3.8-1.6,5.6-3.2,5.6c-1.1,0-1.7-0.7-2.1-1.6h-0.1l-0.1,1.4h-1.4c0-0.6,0.1-1.8,0.1-2.6V569.4L840.7,569.4
		z"/>
	<polygon class="st1" points="850.6,569.4 852.3,569.4 852.3,584.6 850.6,584.6 850.6,569.4 	"/>
	<path class="st1" d="M860.4,578.2c0-2.1-0.8-3.1-1.6-3.1c-1.1,0-1.7,1.6-1.7,3.1H860.4L860.4,578.2z M857.1,579.5
		c0,3.3,1.3,4,2.5,4c0.7,0,1.3-0.2,1.8-0.4l0.3,1.2c-0.6,0.3-1.5,0.5-2.4,0.5c-2.6,0-3.9-2.1-3.9-5.3c0-3.4,1.5-5.6,3.6-5.6
		c2.2,0,3,2.3,3,4.7c0,0.4,0,0.7,0,1H857.1L857.1,579.5z"/>
	<path class="st1" d="M871.6,571.5v2.5h2v1.3h-2v6.3c0,1.4,0.5,1.8,1.1,1.8c0.3,0,0.5,0,0.7-0.1l0.1,1.3c-0.3,0.1-0.7,0.2-1.3,0.2
		c-0.7,0-1.3-0.2-1.7-0.6c-0.4-0.5-0.6-1.2-0.6-2.7v-6.2h-1.3V574h1.3v-1.8L871.6,571.5L871.6,571.5z"/>
	<path class="st1" d="M877.3,579.3c0,1.8,0.3,4.2,1.8,4.2c1.5,0,1.8-2.5,1.8-4.2c0-1.6-0.3-4.1-1.8-4.1
		C877.6,575.2,877.3,577.7,877.3,579.3L877.3,579.3z M882.6,579.3c0,4.1-1.9,5.5-3.5,5.5c-1.9,0-3.5-1.7-3.5-5.5
		c0-3.9,1.7-5.5,3.6-5.5C881.1,573.8,882.6,575.6,882.6,579.3L882.6,579.3z"/>
	<path class="st1" d="M894.9,578.1c0-0.2,0-0.5,0-0.7c-0.1-1.1-0.8-2.1-1.6-2.1c-1.4,0-1.9,2-1.9,4.1c0,2.2,0.6,4,1.8,4
		c0.5,0,1.3-0.3,1.6-1.8c0-0.2,0.1-0.4,0.1-0.7V578.1L894.9,578.1z M896.6,569.4v12.7c0,0.7,0.1,1.9,0.1,2.6h-1.5l-0.1-1.3H895
		c-0.4,0.7-1.1,1.5-2.2,1.5c-1.8,0-3.1-1.9-3.1-5.5c0-3.8,1.6-5.5,3.2-5.5c0.8,0,1.5,0.4,2,1.3h0v-5.7H896.6L896.6,569.4z"/>
	<path class="st1" d="M901.3,579.3c0,1.8,0.3,4.2,1.8,4.2c1.5,0,1.8-2.5,1.8-4.2c0-1.6-0.3-4.1-1.8-4.1
		C901.6,575.2,901.3,577.7,901.3,579.3L901.3,579.3z M906.6,579.3c0,4.1-1.9,5.5-3.5,5.5c-1.9,0-3.5-1.7-3.5-5.5
		c0-3.9,1.7-5.5,3.6-5.5C905.1,573.8,906.6,575.6,906.6,579.3L906.6,579.3z"/>
	<path class="st1" d="M910.3,574l1,5.2c0.2,1.1,0.4,2.3,0.6,3.4h0.1c0.2-1.1,0.4-2.3,0.7-3.3l1.2-5.3h1.3l1.2,5.1
		c0.3,1.2,0.5,2.3,0.7,3.5h0.1c0.1-1.1,0.3-2.2,0.6-3.4l1-5.2h1.7l-2.7,10.6h-1.4l-1.2-5.2c-0.3-1-0.4-2-0.6-3.2h0
		c-0.2,1.3-0.4,2.2-0.6,3.3l-1.3,5.1h-1.4l-2.6-10.6H910.3L910.3,574z"/>
	<path class="st1" d="M923,576.7c0-1.3-0.1-1.9-0.1-2.8h1.5l0.1,1.3h0c0.5-0.9,1.3-1.5,2.4-1.5c1.5,0,2.6,1.1,2.6,3.7v7.2h-1.7v-6.8
		c0-1.3-0.2-2.5-1.5-2.5c-0.7,0-1.4,0.6-1.6,1.7c-0.1,0.3-0.1,0.6-0.1,1v6.7H923V576.7L923,576.7z"/>
	<polygon class="st1" points="933,569.4 934.7,569.4 934.7,584.6 933,584.6 933,569.4 	"/>
	<path class="st1" d="M939.5,579.3c0,1.8,0.3,4.2,1.8,4.2c1.5,0,1.8-2.5,1.8-4.2c0-1.6-0.3-4.1-1.8-4.1
		C939.8,575.2,939.5,577.7,939.5,579.3L939.5,579.3z M944.8,579.3c0,4.1-1.9,5.5-3.5,5.5c-1.9,0-3.5-1.7-3.5-5.5
		c0-3.9,1.7-5.5,3.6-5.5C943.3,573.8,944.8,575.6,944.8,579.3L944.8,579.3z"/>
	<path class="st1" d="M951.8,579.1c-0.9,0-2.9,0.2-2.9,2.5c0,1.4,0.7,1.9,1.3,1.9c0.7,0,1.4-0.5,1.6-1.6c0-0.2,0.1-0.4,0.1-0.6
		V579.1L951.8,579.1z M953.4,582.2c0,0.8,0,1.7,0.1,2.4H952l-0.1-1.1h-0.1c-0.5,0.8-1.2,1.3-2.1,1.3c-1.4,0-2.5-1.2-2.5-3
		c0-2.7,2.1-3.9,4.5-3.9v-0.3c0-1.4-0.4-2.4-1.7-2.4c-0.7,0-1.3,0.2-1.8,0.6l-0.4-1.2c0.5-0.3,1.4-0.7,2.5-0.7c2.1,0,3,1.4,3,3.8
		V582.2L953.4,582.2z"/>
	<path class="st1" d="M961.6,578.1c0-0.2,0-0.5,0-0.7c-0.1-1.1-0.8-2.1-1.6-2.1c-1.4,0-1.9,2-1.9,4.1c0,2.2,0.6,4,1.8,4
		c0.5,0,1.3-0.3,1.6-1.8c0-0.2,0.1-0.4,0.1-0.7V578.1L961.6,578.1z M963.3,569.4v12.7c0,0.7,0.1,1.9,0.1,2.6H962l-0.1-1.3h-0.1
		c-0.4,0.7-1.1,1.5-2.2,1.5c-1.8,0-3.1-1.9-3.1-5.5c0-3.8,1.6-5.5,3.2-5.5c0.8,0,1.5,0.4,2,1.3h0v-5.7H963.3L963.3,569.4z"/>
	<path class="st1" d="M971.7,584.6v-9.4h-1.3V574h1.3v-0.6c0-1.2,0.2-2.3,0.9-3.2c0.6-0.7,1.5-0.9,2.1-0.9c0.6,0,1,0.1,1.3,0.3
		l-0.3,1.3c-0.2-0.1-0.5-0.2-0.9-0.2c-1.2,0-1.5,1.3-1.5,2.7v0.7h1.9v1.3h-1.9v9.4H971.7L971.7,584.6z"/>
	<path class="st1" d="M978.6,579.3c0,1.8,0.3,4.2,1.8,4.2c1.5,0,1.8-2.5,1.8-4.2c0-1.6-0.3-4.1-1.8-4.1
		C978.9,575.2,978.6,577.7,978.6,579.3L978.6,579.3z M983.9,579.3c0,4.1-1.9,5.5-3.5,5.5c-1.9,0-3.5-1.7-3.5-5.5
		c0-3.9,1.7-5.5,3.6-5.5C982.4,573.8,983.9,575.6,983.9,579.3L983.9,579.3z"/>
	<path class="st1" d="M986.9,576.7c0-0.9-0.1-2-0.1-2.8h1.5l0.1,1.7h0c0.4-1,1.3-1.8,2.2-1.8c0.1,0,0.2,0,0.4,0v1.7
		c-0.1,0-0.2,0-0.4,0c-1.1,0-1.9,1-2,2.2c0,0.3-0.1,0.6-0.1,1v5.9h-1.7V576.7L986.9,576.7z"/>
	<path class="st1" d="M998.4,584.6v-9.4H997V574h1.3v-0.6c0-1.2,0.2-2.3,0.9-3.2c0.6-0.7,1.5-0.9,2.1-0.9c0.6,0,1,0.1,1.3,0.3
		l-0.3,1.3c-0.2-0.1-0.5-0.2-0.9-0.2c-1.2,0-1.5,1.3-1.5,2.7v0.7h1.9v1.3h-1.9v9.4H998.4L998.4,584.6z"/>
	<path class="st1" d="M1004.1,576.7c0-0.9-0.1-2-0.1-2.8h1.5l0.1,1.7h0c0.4-1,1.3-1.8,2.2-1.8c0.1,0,0.2,0,0.4,0v1.7
		c-0.1,0-0.2,0-0.4,0c-1.1,0-1.9,1-2,2.2c0,0.3-0.1,0.6-0.1,1v5.9h-1.7V576.7L1004.1,576.7z"/>
	<path class="st1" d="M1014.9,578.2c0-2.1-0.8-3.1-1.6-3.1c-1.1,0-1.7,1.6-1.7,3.1H1014.9L1014.9,578.2z M1011.6,579.5
		c0,3.3,1.3,4,2.5,4c0.7,0,1.3-0.2,1.8-0.4l0.3,1.2c-0.6,0.3-1.5,0.5-2.4,0.5c-2.6,0-3.9-2.1-3.9-5.3c0-3.4,1.5-5.6,3.6-5.6
		c2.2,0,3,2.3,3,4.7c0,0.4,0,0.7,0,1H1011.6L1011.6,579.5z"/>
	<path class="st1" d="M1024,578.2c0-2.1-0.8-3.1-1.6-3.1c-1.1,0-1.7,1.6-1.7,3.1H1024L1024,578.2z M1020.7,579.5c0,3.3,1.3,4,2.5,4
		c0.7,0,1.3-0.2,1.8-0.4l0.3,1.2c-0.6,0.3-1.5,0.5-2.4,0.5c-2.6,0-3.9-2.1-3.9-5.3c0-3.4,1.5-5.6,3.6-5.6c2.2,0,3,2.3,3,4.7
		c0,0.4,0,0.7,0,1H1020.7L1020.7,579.5z"/>
	<path class="st2" d="M45.7,180.5c-11.8-0.5-21.4-3.7-29-9.7c-1.4-1.1-4.9-4.6-6-6c-3.1-3.8-5.1-7.6-6.5-11.7
		c-4.3-12.8-2.1-29.6,6.3-48C17.6,89.3,28.7,73.6,47.9,52c2.8-3.2,11.3-12.5,11.3-12.5c0,0-0.4,0.8-1,1.8c-5,8.4-9.3,18.3-11.6,26.8
		c-3.8,13.7-3.3,25.5,1.3,34.6c3.2,6.3,8.7,11.7,14.8,14.8c10.8,5.3,26.5,5.7,45.8,1.3c1.3-0.3,67-17.7,145.9-38.7
		c78.9-21,143.5-38.2,143.5-38.1c0,0-183.3,78.5-278.5,119.2c-15.1,6.4-19.1,8.1-26.2,10.6C75.1,178,58.9,181,45.7,180.5L45.7,180.5
		z"/>
</g>
</svg>
