<?xml version="1.0" encoding="utf-8"?>
<!-- Generator: Adobe Illustrator 23.1.1, SVG Export Plug-In . SVG Version: 6.00 Build 0)  -->
<svg version="1.1" id="Слой_1" xmlns="http://www.w3.org/2000/svg" xmlns:xlink="http://www.w3.org/1999/xlink" x="0px" y="0px"
	 width="400px" height="220px" viewBox="0 0 400 220" style="enable-background:new 0 0 400 220;" xml:space="preserve">
<g>
	<g>
		<path d="M303.66,66.53c-7.49,0-13.58-6.1-13.58-13.59c0-7.44,6.09-13.49,13.58-13.49c7.46,0,13.53,6.05,13.53,13.49
			C317.19,60.43,311.12,66.53,303.66,66.53z M303.67,26.5c-17.92,0-29.96,10.67-29.96,26.54c0,15.14,12.88,26.56,29.96,26.56
			c17.66,0,29.99-10.92,29.99-26.56C333.66,37.16,321.6,26.5,303.67,26.5z"/>
		<path d="M243.26,27.3h-10.79v13.71l7.31,0.03c5.94,0,10.78,5.14,10.78,11.45c0,7.76-6.26,11.53-10.48,11.63h-13.37V13.07h-16.57
			v64.78h29.82c13.19,0,27.3-9.96,27.3-24.79C267.26,36.94,255.06,27.3,243.26,27.3"/>
		<path d="M93.89,52.59c0-6.41,5.17-11.63,11.51-11.63h13.12l-10.59,17.68h15.82l10.65-16.66V27.34l-31.61,0.04
			C89,27.38,77.79,38.7,77.79,52.61c0,13.92,11.22,25.24,25,25.24h31.71V64.21h-29.1C99.05,64.21,93.89,58.99,93.89,52.59z"/>
		<path d="M46.73,13.07H6.29v64.78h16.06V27.2l20.84,0.02c5.71,0.01,11.82,3.05,11.82,11.57c0,6.51-4.59,11.45-11.02,11.45
			l-16.06-0.01v13.5h11.26c9.67,0.39,13.95,4.83,14.01,14.38v13.85h16.85V73.53c0-9.77-6.92-14.74-13.58-16.42
			c10.47-3.54,15.62-11.68,15.62-21.54C72.08,21.67,58.92,13.07,46.73,13.07z"/>
		<path d="M378.41,50.87c11.15-3.5,14.33-9.61,14.37-21.75v-1.87H376.4v2.74c0,8.14-3.46,13.97-11.14,13.97l-7.79,0V13.07h-16.63
			v64.78h16.63v-20.2h5.97c8.27,0,13.32,4.76,13.32,12.27v7.93h16.53v-7.38C393.29,60.79,388.99,53.8,378.41,50.87z"/>
		<path d="M158.48,52.59c0-6.41,5.17-11.63,11.51-11.63h13.12l-10.59,17.68h15.83L199,41.98V27.34l-31.61,0.04
			c-13.79,0-25.01,11.32-25.01,25.24c0,13.92,11.22,25.24,25,25.24h31.71V64.21h-29.1C163.65,64.21,158.48,58.99,158.48,52.59z"/>
	</g>
	<g>
		<path d="M254.08,147.19c42.54-17.03,69.03-26.84,139.22-43.9c-38.09,2.52-122.42,8.31-180.53,19.65
			C212.77,122.94,253.18,146.66,254.08,147.19"/>
		<path d="M121.8,203.61h55.6c11.01-16.68,21.97-24.82,34.73-33.87c-9.66-3.73-19.36-7.34-29.23-10.82
			C147.39,174.59,127.64,195.63,121.8,203.61"/>
		<path d="M132.79,142.91c-49.57,17.73-77.17,36.98-95.78,60.7h61.42c5.98-8.33,28.77-32.35,71.6-49.05
			C158.21,150.57,137.7,144.16,132.79,142.91"/>
		<path d="M158.25,105.57H22.42c136.94,24.76,202.93,56.57,309.04,101.56C322.39,200.36,176.14,114.21,158.25,105.57"/>
	</g>
</g>
</svg>
