<?xml version="1.0" encoding="utf-8"?>
<!-- Generator: Adobe Illustrator 19.2.1, SVG Export Plug-In . SVG Version: 6.00 Build 0)  -->
<svg version="1.1" id="The_North_Face" xmlns="http://www.w3.org/2000/svg" xmlns:xlink="http://www.w3.org/1999/xlink" x="0px" y="0px"
	 width="400px" height="220px" viewBox="0 0 400 220" enable-background="new 0 0 400 220" xml:space="preserve">
<title>The North Face</title>
<g>
	<polygon fill-rule="evenodd" clip-rule="evenodd" points="258.4,29.5 258.4,19.3 217.6,19.3 217.6,75.3 258.4,75.3 258.4,66.1 
		228.9,66.1 228.9,50.9 254.7,50.9 254.7,40.9 228.9,40.9 228.9,29.5 258.4,29.5 	"/>
	<polygon fill-rule="evenodd" clip-rule="evenodd" points="247,81.1 247,102.6 224.7,102.6 224.7,81.1 213.2,81.1 213.2,136.8 
		224.7,136.8 224.7,111.8 247,111.8 247,136.8 258.4,136.8 258.4,81.1 247,81.1 	"/>
	<polygon fill-rule="evenodd" clip-rule="evenodd" points="258.4,152.6 258.4,142.6 217.6,142.6 217.6,199.3 258.4,199.3 
		258.4,189.1 228.9,189.1 228.9,174.1 254.7,174.1 254.7,164.9 228.9,164.9 228.9,152.6 258.4,152.6 	"/>
	<polygon fill-rule="evenodd" clip-rule="evenodd" points="211.1,19.3 199.7,19.3 199.7,40.9 177.4,40.9 177.4,19.3 166.1,19.3 
		166.1,75.3 177.4,75.3 177.4,50.3 199.7,50.3 199.7,75.3 211.1,75.3 211.1,19.3 	"/>
	<polygon fill-rule="evenodd" clip-rule="evenodd" points="117.2,19.3 117.2,29.5 134.5,29.5 134.5,75.3 145.9,75.3 145.9,29.5 
		163.2,29.5 163.2,19.3 117.2,19.3 	"/>
	<path fill-rule="evenodd" clip-rule="evenodd" d="M81.5,79.5c-17.9,0-27.3,10.2-27.3,29.4c0,20.2,9.4,30.2,27.3,30.2
		s27.1-10,27.1-30.2C108.6,89.7,99.3,79.5,81.5,79.5L81.5,79.5z M66.5,108.9c0-12.9,5-19.2,15-19.2c10.8,0,15.8,6.3,15.8,19.2
		c0,13.7-5,20.2-15.8,20.2C71.5,129.1,66.5,122.6,66.5,108.9L66.5,108.9z"/>
	<polygon fill-rule="evenodd" clip-rule="evenodd" points="37.8,81.1 37.8,120.5 15.5,81.1 3.4,81.1 3.4,136.8 14.1,136.8 
		14.1,97.6 37,136.8 49.1,136.8 49.1,81.1 37.8,81.1 	"/>
	<polygon fill-rule="evenodd" clip-rule="evenodd" points="90.7,165.7 90.7,152.6 119.3,152.6 119.3,142.6 79.3,142.6 79.3,199.3 
		90.7,199.3 90.7,175.7 115.9,175.7 115.9,165.7 90.7,165.7 	"/>
	<polygon fill-rule="evenodd" clip-rule="evenodd" points="208.9,91.1 208.9,81.1 163.2,81.1 163.2,91.1 180.3,91.1 180.3,136.8 
		191.8,136.8 191.8,91.1 208.9,91.1 	"/>
	<path fill-rule="evenodd" clip-rule="evenodd" d="M138,115.5c3.7,0,6.5,0.6,7.9,2.1l2.1,19.2h12.9v-1.3c-1.3-0.8-2.1-4.2-2.1-10.8
		c0-7.9-2.9-12.1-7.1-14.2c5.8-2.3,8.7-6.5,8.7-13.7c0-10-5.8-15.8-17.9-15.8h-28.1v55.8h11.5v-21.3H138L138,115.5z M125.9,106.1
		v-15h14.2c5.8,0,8.7,2.1,8.7,7.1c0,5-2.9,7.9-9.2,7.9H125.9L125.9,106.1z"/>
	<path fill-rule="evenodd" clip-rule="evenodd" d="M145.9,142.6h-13.7l-20,56.7h12.1l4.4-12.3h20.8l3.5,12.3h12.3L145.9,142.6
		L145.9,142.6z M138.8,155.5l7.1,22.3h-14.2L138.8,155.5L138.8,155.5z"/>
	<path fill-rule="evenodd" clip-rule="evenodd" d="M201.8,161.2h11.3c-0.6-5-2.1-9.2-5.6-12.9c-5-4.2-10.8-7.1-18.7-7.1
		s-13.7,2.9-18.7,7.9c-4.2,5-7.1,12.1-7.1,21.5c0,20,8.5,30,25,30c14.4,0,22.3-7.1,25-20.8h-11.3c-1.5,6.5-6.5,10-12.9,10
		c-9.4,0-13.7-6.3-13.7-18.7c0-13.5,4.2-20,13.7-20C195.3,151.2,198.9,154.9,201.8,161.2L201.8,161.2z"/>
	<path fill-rule="evenodd" clip-rule="evenodd" d="M59.1,198.6h0.2H59.1L59.1,198.6z M59.3,198.6L59.3,198.6c1.9,0,3.5-0.8,4.6-1.7
		c1-1.2,1.7-2.7,1.7-4.8l0,0l0,0c0-2.3-0.8-3.8-1.7-4.8c-1.2-1-2.7-1.5-4.6-1.5h-0.2c-2.3,0-3.8,0.6-4.8,1.5l0,0
		c-1,1-1.5,2.5-1.5,4.8v0.2c0,1.9,0.6,3.5,1.5,4.6c1,1,2.5,1.7,4.8,1.7l0,0l0,0l0,0H59.3L59.3,198.6z M59.1,200.1L59.1,200.1
		c-2.7,0-4.6-1-6-2.3c-1.3-1.3-1.9-3.3-1.9-5.6V192c0-2.7,0.6-4.6,1.9-6l0,0l0,0l0,0l0,0c1.3-1.3,3.3-1.9,6-1.9h0.2
		c2.3,0,4.2,0.6,5.6,1.9c1.3,1.3,2.3,3.3,2.3,6l0,0l0,0c0,2.5-1,4.4-2.3,5.8c-1.3,1.3-3.3,2.3-5.6,2.3H59.1L59.1,200.1z M59.9,191.2
		L59.9,191.2L59.9,191.2L59.9,191.2c0,0,0,0,0.2,0c0.8,0,1.2-0.4,1.2-1.3v-0.2c0,0-0.2,0-0.2-0.2c-0.2-0.2-0.6-0.2-1.2-0.2l0,0l0,0
		l0,0h-2.1v1.9H59.9L59.9,191.2L59.9,191.2z M61.3,192.6l1.5,1.9c0.2,0.4,0,0.8-0.2,1c-0.4,0.4-1,0.2-1.2,0l-1.9-2.7h-1.7v2.1
		c0,0.4-0.4,0.8-0.8,0.8s-0.8-0.4-0.8-0.8V192v-3.5c0-0.4,0.4-0.8,0.8-0.8h2.9l0,0l0,0l0,0l0,0c0,0,0,0,0.2,0c0.8,0,1.5,0.2,1.9,0.6
		c0.2,0.2,0.4,0.2,0.4,0.4c0.4,0.4,0.4,0.8,0.4,1.2C62.8,191.4,62.4,192.2,61.3,192.6L61.3,192.6z"/>
	<path fill-rule="evenodd" clip-rule="evenodd" d="M266.2,19.3c35.8,0,66.7,13.1,91.7,38.1c25.8,25.8,38.7,56.5,38.7,92.5v49.4
		h-52.3v-51c0-20-7.1-37.3-21.5-51.5c-3.5-3.7-7.1-6.5-11.3-9.4c-11.5-7.9-25.2-11.3-39.4-11.3h-5.8V19.3L266.2,19.3z M339.3,199.3
		h-40.8v-39.4c0-6.5-2.1-11.5-6.5-15.8c-4.2-4.4-10-6.5-15.8-6.5h-10V81.1h5.8c15,0,27.9,4.2,39.4,12.9c2.9,1.3,5.8,4.2,7.9,6.3
		c13.7,13.7,20,29.4,20,48.1V199.3L339.3,199.3z M293.6,199.3h-27.3v-56.7h10c4.4,0,8.7,1.5,12.3,5c2.9,2.9,5,7.3,5,12.3V199.3
		L293.6,199.3z"/>
</g>
</svg>
