<svg width="168" height="53" viewBox="0 0 168 53" fill="none" xmlns="http://www.w3.org/2000/svg">
<g clip-path="url(#clip0_38_1231)">
<mask id="mask0_38_1231" style="mask-type:luminance" maskUnits="userSpaceOnUse" x="0" y="0" width="168" height="53">
<path d="M168 0H0V53H168V0Z" fill="white"/>
</mask>
<g mask="url(#mask0_38_1231)">
<path d="M50.4 1.84027H2.24001V50.7917H50.4M50.4 1.84027H165.76V50.7917H50.4M50.4 1.84027V50.7917" stroke="white" stroke-width="3"/>
<path d="M68.6827 23.9717C68.6318 23.4656 68.4133 23.0724 68.0273 22.7923C67.6412 22.512 67.1173 22.3719 66.4554 22.3719C66.0058 22.3719 65.626 22.4347 65.3164 22.5601C65.0067 22.6814 64.7691 22.8508 64.6036 23.0683C64.4424 23.2858 64.3619 23.5326 64.3619 23.8086C64.3533 24.0386 64.4021 24.2394 64.5082 24.4108C64.6185 24.5823 64.7691 24.7308 64.96 24.8563C65.1509 24.9776 65.3715 25.0842 65.6219 25.1762C65.8721 25.2641 66.1394 25.3394 66.4236 25.4021L67.5945 25.6781C68.1631 25.8036 68.6848 25.9709 69.16 26.18C69.6352 26.3891 70.0467 26.6464 70.3945 26.9517C70.7424 27.257 71.0118 27.6167 71.2027 28.0307C71.3979 28.4448 71.4976 28.9195 71.5019 29.4549C71.4976 30.2412 71.294 30.9229 70.8909 31.5001C70.4921 32.0731 69.9152 32.5185 69.16 32.8364C68.4091 33.1501 67.5034 33.307 66.4427 33.307C65.3906 33.307 64.4742 33.148 63.6937 32.8301C62.9173 32.5123 62.3106 32.0417 61.8737 31.4185C61.4409 30.7912 61.214 30.0154 61.1927 29.091H63.8591C63.8888 29.5218 64.014 29.8815 64.2345 30.1701C64.4594 30.4545 64.7585 30.6699 65.1318 30.8163C65.5094 30.9585 65.9358 31.0296 66.4109 31.0296C66.8776 31.0296 67.2827 30.9627 67.6264 30.8288C67.9742 30.695 68.2436 30.5089 68.4345 30.2705C68.6255 30.0321 68.7209 29.7581 68.7209 29.4486C68.7209 29.16 68.634 28.9175 68.46 28.7208C68.2903 28.5243 68.04 28.357 67.7091 28.219C67.3824 28.0809 66.9815 27.9555 66.5064 27.8426L65.0873 27.4912C63.9885 27.2277 63.1209 26.8158 62.4846 26.2553C61.8482 25.6948 61.5321 24.94 61.5364 23.9905C61.5321 23.2126 61.7421 22.5329 62.1664 21.9516C62.5949 21.3702 63.1824 20.9164 63.9291 20.5902C64.6758 20.264 65.5243 20.1008 66.4745 20.1008C67.4419 20.1008 68.286 20.264 69.0073 20.5902C69.7327 20.9164 70.297 21.3702 70.7 21.9516C71.1031 22.5329 71.3109 23.2063 71.3236 23.9717H68.6827ZM84.2561 20.2765V33.125H81.8765L76.2063 25.0382H76.1107V33.125H73.3552V20.2765H75.7732L81.3986 28.357H81.5136V20.2765H84.2561ZM86.5327 33.125V20.2765H95.3143V22.5162H89.2879V25.5778H94.8625V27.8175H89.2879V30.8853H95.3404V33.125H86.5327ZM99.7517 33.125H96.7986L101.298 20.2765H104.849L109.342 33.125H106.389L103.124 23.2126H103.023L99.7517 33.125ZM99.5673 28.0747H106.542V30.1952H99.5673V28.0747ZM110.91 33.125V20.2765H113.666V25.9417H113.838L118.527 20.2765H121.83L116.994 26.0295L121.887 33.125H118.591L115.021 27.8426L113.666 29.4737V33.125H110.91ZM128.483 20.2765H131.207V29.2353C131.207 30.0634 131.018 30.7828 130.641 31.3934C130.267 32.0041 129.748 32.4746 129.082 32.805C128.415 33.1354 127.641 33.3006 126.759 33.3006C125.974 33.3006 125.262 33.1647 124.621 32.8929C123.984 32.6169 123.479 32.1986 123.106 31.6381C122.733 31.0735 122.548 30.3646 122.553 29.5113H125.295C125.303 29.8501 125.374 30.1408 125.505 30.3834C125.641 30.6218 125.825 30.8058 126.059 30.9355C126.296 31.0609 126.576 31.1237 126.899 31.1237C127.238 31.1237 127.525 31.0526 127.758 30.9104C127.996 30.764 128.176 30.5507 128.299 30.2705C128.422 29.9903 128.483 29.6452 128.483 29.2353V20.2765ZM145.462 26.7007C145.462 28.1018 145.192 29.2939 144.653 30.2768C144.119 31.2596 143.389 32.0104 142.464 32.529C141.543 33.0434 140.508 33.3006 139.359 33.3006C138.201 33.3006 137.161 33.0414 136.241 32.5227C135.32 32.0041 134.593 31.2534 134.058 30.2705C133.523 29.2876 133.256 28.0977 133.256 26.7007C133.256 25.2996 133.523 24.1076 134.058 23.1248C134.593 22.1418 135.32 21.3932 136.241 20.8788C137.161 20.3602 138.201 20.1008 139.359 20.1008C140.508 20.1008 141.543 20.3602 142.464 20.8788C143.389 21.3932 144.119 22.1418 144.653 23.1248C145.192 24.1076 145.462 25.2996 145.462 26.7007ZM142.668 26.7007C142.668 25.7932 142.53 25.0278 142.254 24.4046C141.983 23.7814 141.599 23.3088 141.103 22.9868C140.606 22.6647 140.025 22.5036 139.359 22.5036C138.693 22.5036 138.112 22.6647 137.615 22.9868C137.119 23.3088 136.733 23.7814 136.457 24.4046C136.185 25.0278 136.05 25.7932 136.05 26.7007C136.05 27.6084 136.185 28.3738 136.457 28.9969C136.733 29.6201 137.119 30.0927 137.615 30.4148C138.112 30.7368 138.693 30.8978 139.359 30.8978C140.025 30.8978 140.606 30.7368 141.103 30.4148C141.599 30.0927 141.983 29.6201 142.254 28.9969C142.53 28.3738 142.668 27.6084 142.668 26.7007ZM145.952 20.2765H149.038L152.01 25.8099H152.137L155.109 20.2765H158.196L153.442 28.5828V33.125H150.705V28.5828L145.952 20.2765Z" fill="white"/>
<path fill-rule="evenodd" clip-rule="evenodd" d="M28.3733 44.6826C30.2081 44.5149 31.8201 44.1032 33.2097 43.4473C35.0877 42.5662 36.5131 41.3783 37.4861 39.8838C38.4703 38.3893 38.9624 36.7163 38.9624 34.8649C38.9624 33.2588 38.6287 31.9037 37.9612 30.7995C37.2938 29.6954 36.4453 28.792 35.4158 28.0893C34.3976 27.3755 33.3285 26.8123 32.2085 26.3996C31.0998 25.9869 30.0929 25.6635 29.1879 25.4292L28.3733 25.2131V29.2243C29.4415 29.5326 30.4427 29.8848 31.377 30.281C32.4291 30.727 33.2776 31.307 33.9224 32.0208C34.5673 32.7346 34.8897 33.6604 34.8897 34.798C34.8897 36.0471 34.5164 37.1401 33.7697 38.077C33.0231 39.0027 32.0105 39.7277 30.7321 40.2519C29.9997 40.5458 29.2134 40.7555 28.3733 40.8811V44.6826ZM24.64 28.173V24.2025C24.2877 24.0941 23.9201 23.9732 23.537 23.84C22.7677 23.5611 22.0324 23.2098 21.3309 22.7859C20.6295 22.351 20.0526 21.8101 19.6 21.1632C19.1588 20.5052 18.9382 19.7189 18.9382 18.8042C18.9382 17.7113 19.255 16.7353 19.8885 15.8766C20.5333 15.0178 21.4271 14.343 22.5697 13.8523C23.2021 13.5833 23.8922 13.3881 24.64 13.2666V9.56392C23.2384 9.74044 21.9317 10.0992 20.72 10.6401C18.9326 11.432 17.5071 12.5473 16.4436 13.9861C15.3915 15.4137 14.8655 17.0867 14.8655 19.0051C14.8655 21.3137 15.6574 23.1819 17.2412 24.6095C18.825 26.0371 20.9746 27.1357 23.6897 27.9053L24.64 28.173ZM28.3733 9.50945V13.2367C29.7253 13.4308 30.9131 13.8591 31.937 14.5215C33.385 15.4583 34.2109 16.7744 34.4146 18.4697H38.4873C38.4307 16.7409 37.8877 15.1962 36.8582 13.8355C35.84 12.4749 34.4598 11.4041 32.7176 10.6234C31.4097 10.029 29.9617 9.65762 28.3733 9.50945ZM24.64 40.9055V44.698C22.8826 44.5518 21.3157 44.1795 19.9394 43.5811C18.1293 42.7892 16.7038 41.6851 15.6631 40.2686C14.6336 38.8522 14.0509 37.207 13.9152 35.3333H18.2594C18.3726 36.6271 18.8138 37.6978 19.5831 38.5454C20.3636 39.3819 21.3479 40.0065 22.5358 40.4192C23.2087 40.6445 23.9101 40.8066 24.64 40.9055Z" fill="white"/>
</g>
</g>
<defs>
<clipPath id="clip0_38_1231">
<rect width="168" height="53" fill="white"/>
</clipPath>
</defs>
</svg>
