<?xml version="1.0" standalone="no"?>
<!DOCTYPE svg PUBLIC "-//W3C//DTD SVG 20010904//EN"
 "http://www.w3.org/TR/2001/REC-SVG-20010904/DTD/svg10.dtd">
<svg version="1.0" xmlns="http://www.w3.org/2000/svg"
 width="260.000000pt" height="260.000000pt" viewBox="0 0 260.000000 260.000000"
 preserveAspectRatio="xMidYMid meet">
<metadata>
Created by potrace 1.14, written by Peter Selinger 2001-2017
</metadata>
<g transform="translate(0.000000,260.000000) scale(0.100000,-0.100000)"
fill="#000000" stroke="none">
<path d="M0 1300 l0 -1300 1300 0 1300 0 0 1300 0 1300 -1300 0 -1300 0 0
-1300z m2240 -15 l0 -955 -940 0 -940 0 0 948 c0 522 3 952 7 955 3 4 426 7
940 7 l933 0 0 -955z"/>
<path d="M457 2143 c-4 -3 -7 -393 -7 -865 l0 -858 850 0 850 0 0 865 0 865
-843 0 c-464 0 -847 -3 -850 -7z m1018 -255 c141 -36 258 -150 272 -267 l6
-52 -73 3 -73 3 -14 42 c-19 56 -86 115 -158 137 l-55 18 0 69 0 69 28 -6 c15
-3 45 -11 67 -16z m-237 -54 l-3 -67 -45 -13 c-55 -16 -128 -76 -146 -121 -44
-104 12 -203 143 -253 l48 -18 3 -76 3 -75 -71 24 c-94 32 -160 69 -208 117
-56 55 -75 100 -80 185 -7 122 34 206 139 285 49 37 150 76 197 77 22 1 23 -2
20 -65z m282 -555 c128 -50 216 -131 241 -223 18 -67 7 -183 -24 -243 -56
-109 -168 -184 -314 -208 l-43 -7 0 70 0 71 54 15 c146 43 229 190 166 294
-24 40 -96 87 -167 109 l-53 17 0 74 0 74 33 -7 c17 -4 66 -20 107 -36z m-516
-341 c3 -7 7 -26 11 -43 11 -49 92 -119 163 -140 l62 -19 0 -68 c0 -78 1 -78
-95 -53 -80 21 -168 70 -211 118 -40 44 -78 122 -88 180 l-7 37 81 0 c56 0 82
-4 84 -12z"/>
</g>
</svg>
